<svg version="1.1" id="Layer_1" xmlns="http://www.w3.org/2000/svg" xmlns:xlink="http://www.w3.org/1999/xlink" x="0px" y="0px"
	 width="100%" viewBox="0 0 1994 443" enable-background="new 0 0 1994 443" xml:space="preserve">
<path fill="#FFFEFF" opacity="1.000000" stroke="none" 
	d="
M737.000000,444.000000 
	C491.687225,444.000000 246.374451,444.000000 1.030840,444.000000 
	C1.030840,296.366272 1.030840,148.732544 1.030840,1.049403 
	C665.578064,1.049403 1330.156128,1.049403 1994.867065,1.049403 
	C1994.867065,148.565552 1994.867065,296.131256 1994.867065,444.000000 
	C1587.969116,444.000000 1180.938232,444.000000 773.406433,443.718994 
	C772.854370,443.255066 772.803101,443.072144 772.814087,442.455688 
	C772.917786,434.068726 772.917786,434.068726 763.390137,430.546478 
	C763.390137,426.146423 763.390137,421.795563 763.390137,417.191467 
	C777.493042,428.295074 796.131104,422.956604 803.419495,408.182770 
	C810.260193,394.316559 810.002930,380.153442 803.275940,366.384033 
	C798.485352,356.577942 789.286743,352.114746 778.754944,354.857147 
	C772.877319,356.387604 767.537354,359.982697 762.554932,362.361053 
	C761.223083,360.546509 759.617004,356.087646 757.391907,355.753723 
	C750.793396,354.763489 743.950867,355.399231 737.264832,355.399231 
	C736.563293,365.300720 736.563293,365.300720 746.500488,368.597260 
	C746.500488,389.295715 746.500488,410.026398 746.500488,430.772888 
	C745.140564,431.164948 744.040588,431.680908 742.906006,431.774109 
	C738.397095,432.144470 736.290466,434.340912 736.973022,438.975098 
	C737.165527,440.282318 737.088013,441.629364 737.076660,443.215485 
	C737.012695,443.648560 737.006348,443.824280 737.000000,444.000000 
M554.969360,156.182297 
	C555.923645,155.274841 556.912476,154.400833 557.826904,153.454895 
	C573.238586,137.512527 596.783325,133.034149 616.656311,142.276947 
	C636.157837,151.347015 648.417603,172.191742 646.380615,192.815857 
	C644.067627,216.234695 629.014709,233.894119 606.728394,239.179718 
	C603.076477,240.045837 599.320374,240.472427 595.724121,241.083206 
	C595.724121,254.975677 595.724121,268.431091 595.724121,282.196899 
	C597.612183,282.196899 599.250488,282.269989 600.880737,282.186279 
	C653.745911,279.471832 694.684143,230.856842 687.708923,178.171844 
	C683.044739,142.942413 664.231689,117.117142 631.389954,103.264923 
	C598.411987,89.355217 566.826050,93.929688 538.084656,115.290062 
	C532.335510,119.562752 527.872559,125.565964 522.163452,130.947235 
	C511.239899,142.800415 497.989655,149.334854 481.601776,149.100586 
	C455.805664,148.731812 434.421021,129.523285 431.353943,102.662384 
	C428.671265,79.167404 443.379669,54.921917 469.197937,47.973221 
	C473.309937,46.866524 477.569122,46.306774 481.701721,45.505516 
	C481.701721,31.920361 481.701721,18.530663 481.701721,4.932709 
	C478.506866,4.932709 475.688385,4.807822 472.886536,4.970130 
	C470.408844,5.113660 467.912018,5.402503 465.487976,5.925409 
	C428.778564,13.844254 403.909851,35.561417 393.258240,71.477531 
	C382.827179,106.650024 391.489563,138.337387 417.292114,164.182571 
	C450.438110,197.383301 502.162048,200.123169 539.475342,171.534866 
	C545.030090,167.278976 549.400452,161.477112 554.969360,156.182297 
M1926.500000,297.042816 
	C1937.620850,297.042816 1948.741699,297.042816 1959.957031,297.042816 
	C1959.957031,292.495697 1960.419312,288.297028 1959.875488,284.233032 
	C1957.739258,268.272278 1950.528198,255.550217 1934.435669,250.426193 
	C1918.658936,245.402756 1904.420166,248.965469 1893.125732,261.481354 
	C1881.469238,274.398651 1879.109131,295.951202 1887.203613,312.061279 
	C1895.042480,327.662354 1910.629395,335.825165 1929.552490,333.907166 
	C1941.347778,332.711609 1950.672974,326.958160 1958.178711,317.677856 
	C1954.858521,314.740875 1951.899048,312.122986 1948.842529,309.419373 
	C1938.474976,320.016174 1926.659668,324.382629 1912.828003,318.682800 
	C1903.642090,314.897491 1899.138550,307.136871 1897.632080,297.042816 
	C1907.217651,297.042816 1916.358887,297.042816 1926.500000,297.042816 
M1541.143311,310.237091 
	C1548.432495,325.126801 1560.161133,333.403595 1576.895386,334.128448 
	C1591.663208,334.768127 1603.587769,329.265930 1612.958984,317.637817 
	C1609.632812,314.720337 1606.667969,312.119843 1603.608887,309.436646 
	C1593.259644,320.062622 1581.421021,324.388855 1567.584351,318.650574 
	C1558.429321,314.853729 1553.903809,307.128479 1552.464111,296.908875 
	C1573.540771,296.908875 1594.129395,296.908875 1615.556030,296.908875 
	C1614.983276,290.689362 1614.948730,284.845459 1613.832642,279.215942 
	C1610.441895,262.112152 1598.216553,250.707870 1581.836304,248.774109 
	C1564.590332,246.738144 1549.204834,255.092758 1541.855835,270.782288 
	C1535.901611,283.493469 1535.652832,296.463806 1541.143311,310.237091 
M637.221008,391.604431 
	C637.226013,382.316589 632.847961,375.736298 624.631226,371.721588 
	C620.911194,369.903992 617.009277,368.449738 613.155396,366.917572 
	C608.991394,365.262054 604.707703,363.885956 600.621765,362.061981 
	C596.104431,360.045410 593.511230,356.583679 594.302002,351.352875 
	C595.047546,346.420715 598.700317,342.561615 604.071716,342.126923 
	C608.653687,341.756104 613.325317,342.407990 617.951660,342.697754 
	C621.345154,342.910309 622.992676,344.492950 623.604187,348.184021 
	C625.076599,357.071869 625.524414,357.158173 635.005615,355.649261 
	C635.005615,349.402191 635.141296,343.089783 634.892273,336.792633 
	C634.841919,335.518860 633.622681,333.734344 632.457947,333.148376 
	C621.751343,327.762360 610.487915,325.421143 598.612427,328.255341 
	C586.669617,331.105591 578.593689,340.544342 577.461609,352.534576 
	C576.333801,364.479645 581.512756,372.536011 594.015747,378.047455 
	C596.742188,379.249298 599.624939,380.096558 602.436157,381.105957 
	C606.029846,382.396393 609.727234,383.457520 613.194824,385.026459 
	C619.034546,387.668640 621.065186,391.446320 620.306458,397.317017 
	C619.564148,403.060638 615.998718,407.429016 610.082458,407.905884 
	C604.366150,408.366669 598.539307,407.541870 592.766846,407.186981 
	C589.510010,406.986786 588.106201,405.281128 587.529053,401.876343 
	C586.047302,393.135193 585.402710,392.896820 576.063965,394.560883 
	C576.063965,401.470917 575.916321,408.449310 576.199097,415.410187 
	C576.250366,416.672028 577.914185,418.744720 579.089355,418.945465 
	C588.226685,420.506256 597.415039,422.689819 606.609863,422.798553 
	C625.034119,423.016479 636.605835,411.013367 637.221008,391.604431 
M75.927330,351.538971 
	C77.253250,357.691467 78.079155,358.104340 86.778015,356.835510 
	C86.778015,349.423401 86.778015,341.980621 86.778015,334.092133 
	C82.519096,332.560669 78.240715,330.740662 73.804626,329.472137 
	C42.270947,320.454926 14.141555,336.718719 9.577213,367.325287 
	C5.163281,396.923248 22.842745,425.641785 59.625561,422.897797 
	C71.019058,422.047852 80.799416,417.674255 88.308319,408.474792 
	C87.190559,407.217743 86.228149,406.087891 85.215729,405.004730 
	C79.444458,398.830139 79.440384,398.833893 72.392616,403.588318 
	C57.736919,413.475067 36.552578,407.180634 30.296991,390.710632 
	C28.503733,385.989319 27.617373,380.691010 27.463430,375.622406 
	C26.966871,359.272766 34.789223,346.888824 48.334854,343.739227 
	C54.622475,342.277222 61.482075,343.069061 68.075378,343.197784 
	C72.730705,343.288635 75.867783,345.515442 75.927330,351.538971 
M1330.145264,272.938721 
	C1330.801392,271.976624 1331.375366,270.944305 1332.126953,270.063568 
	C1338.247437,262.891418 1346.019653,260.738464 1355.054810,262.737030 
	C1363.854126,264.683472 1368.161865,270.803467 1369.505615,279.196167 
	C1370.105713,282.945251 1369.957764,286.830231 1369.970947,290.654175 
	C1370.018188,304.431274 1369.989502,318.208649 1369.989502,331.919128 
	C1375.185791,331.919128 1379.895630,331.919128 1384.792847,331.919128 
	C1384.792847,322.679810 1384.885132,313.854462 1384.768555,305.031891 
	C1384.634277,294.880493 1384.909790,284.673798 1383.930298,274.595825 
	C1382.627319,261.189148 1372.929199,251.246735 1360.184326,249.091919 
	C1348.134644,247.054688 1337.329224,249.377045 1328.717285,258.736328 
	C1328.370117,259.113586 1327.791016,259.277496 1326.812988,259.824097 
	C1326.812988,256.264862 1326.812988,253.321991 1326.812988,250.319687 
	C1321.913940,250.319687 1317.334717,250.319687 1312.516113,250.319687 
	C1312.516113,277.656647 1312.516113,304.731903 1312.516113,331.985413 
	C1317.425293,331.985413 1322.126709,331.985413 1327.043091,331.985413 
	C1327.043091,316.817993 1326.828857,301.992432 1327.171753,287.179810 
	C1327.276611,282.649506 1328.911255,278.154572 1330.145264,272.938721 
M1271.016357,257.577698 
	C1271.007568,271.229523 1271.189331,284.884918 1270.934814,298.532166 
	C1270.694214,311.431274 1261.263550,320.434326 1248.572388,320.410797 
	C1236.173462,320.387787 1228.638062,312.469452 1228.128906,298.904724 
	C1228.066528,297.241913 1228.090942,295.575439 1228.090576,293.910675 
	C1228.087280,280.758209 1228.096436,267.605713 1228.073853,254.453262 
	C1228.071411,253.034454 1227.890503,251.615952 1227.796509,250.256805 
	C1222.879150,250.256805 1218.432617,250.256805 1214.193970,250.256805 
	C1214.193970,270.054504 1213.308960,289.701630 1214.529785,309.217010 
	C1215.248535,320.703949 1222.860474,329.102722 1234.398682,332.426636 
	C1247.271362,336.134918 1259.107666,334.276367 1268.897095,324.294830 
	C1269.379639,323.802734 1270.012817,323.458313 1271.260742,322.542389 
	C1271.260742,326.306396 1271.260742,329.202423 1271.260742,331.968231 
	C1276.264282,331.968231 1280.840576,331.968231 1285.334595,331.968231 
	C1285.334595,304.522491 1285.334595,277.448944 1285.334595,250.367249 
	C1280.444946,250.367249 1275.875854,250.367249 1271.016235,250.367249 
	C1271.016235,252.652267 1271.016235,254.626312 1271.016357,257.577698 
M221.373337,368.939667 
	C225.526398,372.274536 225.632874,377.011475 225.654236,381.695557 
	C225.714935,395.005463 225.675552,408.315826 225.675552,421.710571 
	C234.619614,421.710571 243.177094,421.710571 251.708450,421.710571 
	C252.279297,412.573181 252.279297,412.573181 242.022827,408.655762 
	C242.022827,398.298828 242.252853,387.807404 241.969498,377.329865 
	C241.531876,361.148041 230.093475,351.747986 214.256149,355.096405 
	C208.900589,356.228760 204.035858,359.682617 199.919739,361.618073 
	C198.107712,359.602325 196.390091,355.906921 194.246658,355.640747 
	C187.731812,354.831787 181.052460,355.347656 173.920380,355.347656 
	C174.187500,358.868744 173.362564,362.677124 174.897522,364.521301 
	C176.827713,366.840332 180.688751,367.552246 183.838470,369.014191 
	C183.838470,382.130737 183.838470,395.444336 183.838470,408.710022 
	C173.168137,412.826630 173.168137,412.826630 174.657623,421.720520 
	C186.381256,421.720520 198.110565,421.720520 209.818756,421.720520 
	C210.286484,412.587067 210.286484,412.587067 200.236191,408.614807 
	C200.236191,397.781189 200.200043,386.808105 200.296036,375.836151 
	C200.304947,374.818298 200.942307,373.622192 201.645523,372.823975 
	C206.368729,367.462677 213.883972,365.794342 221.373337,368.939667 
M700.020874,385.500427 
	C700.020752,390.494568 700.046692,395.488922 700.000488,400.482635 
	C699.989990,401.611969 700.031311,402.900879 699.530212,403.839447 
	C697.198364,408.207031 687.729126,411.435150 682.046326,409.951355 
	C677.435059,408.747314 675.010315,404.852814 674.886902,398.172974 
	C674.794556,393.180511 674.852051,388.185150 674.850281,383.191101 
	C674.847046,374.076965 674.849304,364.962799 674.849304,355.648621 
	C665.857056,355.648621 657.342407,355.648621 648.876343,355.648621 
	C647.780884,365.016571 647.780884,365.016571 658.154358,368.758423 
	C658.154358,378.465271 657.995544,388.274933 658.199402,398.077057 
	C658.399963,407.723022 661.143982,416.443237 670.596985,420.845642 
	C680.020569,425.234314 689.074646,423.461761 697.313293,417.256866 
	C698.447876,416.402405 699.630798,415.612274 699.973877,415.369873 
	C702.235840,417.827789 703.971130,421.457764 706.118225,421.720337 
	C712.626221,422.516266 719.293701,422.008301 725.844604,422.008301 
	C726.524597,412.723938 726.462219,412.868896 718.676331,409.519012 
	C717.476440,409.002777 716.539551,406.460449 716.518738,404.841766 
	C716.347717,391.526337 716.422119,378.207733 716.422058,364.890106 
	C716.422058,361.781647 716.422058,358.673187 716.422058,355.657043 
	C707.343872,355.657043 698.946045,355.657043 690.597229,355.657043 
	C689.718018,365.333801 689.718018,365.333801 700.020874,368.661072 
	C700.020874,373.877838 700.020874,379.189728 700.020874,385.500427 
M1713.671753,274.484894 
	C1712.474243,269.089905 1713.817261,265.337280 1718.541870,263.449768 
	C1721.529419,262.256226 1725.186646,261.276642 1728.198120,261.891693 
	C1735.873779,263.459259 1743.355713,265.975494 1751.734497,268.343628 
	C1753.188721,265.924713 1755.365234,262.304474 1757.655273,258.495422 
	C1749.784668,253.157791 1741.613281,250.067459 1732.727173,249.090546 
	C1724.827271,248.222015 1717.035767,248.770767 1710.033447,253.098862 
	C1702.306763,257.874695 1698.574829,264.828156 1698.817627,273.985168 
	C1699.043457,282.505493 1703.748291,287.924805 1710.893799,291.465576 
	C1714.739014,293.370972 1718.922974,294.601471 1722.976074,296.076447 
	C1728.427490,298.060364 1734.214722,299.413940 1739.232788,302.174469 
	C1741.805908,303.590027 1744.079956,307.295410 1744.587891,310.288635 
	C1745.266357,314.285797 1742.516479,318.067688 1738.555664,319.018707 
	C1733.682617,320.188751 1728.184326,321.341766 1723.518921,320.201019 
	C1715.954712,318.351624 1708.848511,314.629547 1701.139893,311.533783 
	C1699.243164,314.226013 1696.885864,317.571899 1694.316895,321.218414 
	C1708.020996,331.395874 1722.543457,336.384521 1739.120483,332.749176 
	C1750.605347,330.230621 1758.040894,321.484924 1758.869751,310.490814 
	C1759.650391,300.135559 1754.508789,292.685150 1742.791260,287.949493 
	C1737.104126,285.651062 1731.028320,284.297272 1725.391235,281.898407 
	C1721.375244,280.189423 1717.797607,277.450439 1713.671753,274.484894 
M415.210876,383.880005 
	C405.805328,384.047943 396.658875,385.507477 388.154907,389.738464 
	C379.459167,394.064880 376.027344,401.145935 378.007812,410.233307 
	C379.645355,417.747192 386.455505,422.536987 395.528595,423.055939 
	C404.560364,423.572601 411.921844,419.930023 417.490662,415.109833 
	C420.205078,417.654907 422.276245,421.264679 424.865479,421.685303 
	C430.659821,422.626526 436.712158,421.979767 443.117126,421.979767 
	C442.948425,418.626953 443.885376,414.791260 442.382233,412.974701 
	C440.438904,410.626282 436.546906,409.890381 433.091583,408.271667 
	C433.091583,397.909241 433.369232,387.251190 433.011871,376.614502 
	C432.668823,366.404022 426.622650,358.180145 417.426178,355.617065 
	C403.712036,351.794922 391.617371,355.506409 380.886536,364.388428 
	C385.181580,374.095428 387.011963,374.741394 396.039581,370.147186 
	C397.663849,369.320526 399.318085,368.505768 401.039398,367.925690 
	C405.704803,366.353302 410.521210,366.050537 414.030182,369.970459 
	C417.527802,373.877777 418.150604,378.758514 415.210876,383.880005 
M517.162537,393.054688 
	C518.405396,392.336243 519.639893,391.011108 520.892395,390.993896 
	C532.547791,390.833618 544.206238,390.893188 555.863831,390.901550 
	C558.443909,390.903412 560.719604,390.944641 561.388123,387.424377 
	C563.563721,375.967651 556.896790,362.300995 546.394409,357.231659 
	C528.408142,348.549988 506.809570,358.149780 501.950928,377.498535 
	C500.571594,382.991486 500.424500,389.120331 501.185394,394.758759 
	C502.969971,407.983002 510.002563,417.661011 523.176270,421.712891 
	C536.645996,425.855804 553.175598,421.356445 560.622803,411.977692 
	C554.859314,403.305450 554.690674,403.253204 545.627747,407.348389 
	C545.476868,407.416565 545.346008,407.529327 545.194824,407.596710 
	C530.676636,414.067078 520.962585,409.298767 517.162537,393.054688 
M121.677490,390.899384 
	C133.338242,390.898499 145.002060,391.029785 156.656494,390.757782 
	C158.456940,390.715790 161.619049,389.000519 161.775192,387.759918 
	C163.428589,374.625122 158.209518,360.698364 143.679962,355.918518 
	C123.847618,349.394226 104.521011,361.058746 101.605164,382.014526 
	C99.606445,396.379059 102.987610,409.647797 115.952225,417.924530 
	C128.786179,426.117828 142.293625,424.492126 155.279449,417.466614 
	C157.645950,416.186249 159.548294,414.047943 161.595154,412.363098 
	C155.533051,403.388733 155.235092,403.303772 146.454468,407.265503 
	C144.942184,407.947815 143.421753,408.629364 141.858475,409.178589 
	C130.059326,413.323975 119.293282,406.443756 118.001282,394.058380 
	C117.763992,391.783630 118.112839,390.488831 121.677490,390.899384 
M959.837646,390.898895 
	C971.659973,390.898102 983.482483,390.858215 995.304382,390.924927 
	C998.135376,390.940887 999.984192,390.332428 1000.572388,387.073090 
	C1002.860352,374.394073 994.640686,360.183350 982.398621,355.996155 
	C961.322937,348.787598 940.900574,362.633179 939.734863,385.158905 
	C939.043030,398.527863 942.532410,410.506958 954.494873,418.052490 
	C966.360046,425.536652 978.939270,424.447327 991.221436,418.837219 
	C994.533020,417.324615 997.281189,414.578705 1000.283569,412.402069 
	C993.516724,403.446899 993.520142,403.454590 984.433960,407.498383 
	C982.919067,408.172577 981.387695,408.830719 979.816528,409.353882 
	C968.042053,413.274200 956.705627,405.465240 956.376160,393.084686 
	C956.357422,392.379303 958.033569,391.628845 959.837646,390.898895 
M832.215515,416.337219 
	C846.982483,426.916565 871.110901,424.603882 879.968872,411.760132 
	C874.085938,403.322174 874.085999,403.322327 864.809998,407.473907 
	C863.900879,407.880829 863.002319,408.314850 862.078125,408.684357 
	C848.355042,414.170593 836.765015,406.125793 836.957214,391.250549 
	C837.270081,391.147949 837.582764,390.956573 837.895935,390.955627 
	C847.716919,390.925659 857.537964,390.906464 867.359009,390.901764 
	C881.968140,390.894775 883.778015,388.409302 879.635437,374.001648 
	C879.589722,373.842834 879.493958,373.698730 879.445190,373.540436 
	C875.870117,361.938995 866.782715,355.134766 853.730164,354.288788 
	C840.429199,353.426727 828.370544,360.493439 822.991455,372.302521 
	C816.438782,386.688110 820.067993,404.968903 832.215515,416.337219 
M1453.879150,270.717529 
	C1462.207642,290.100952 1470.652222,309.436035 1478.755737,328.913086 
	C1480.182007,332.341522 1481.981812,333.386719 1485.367310,333.042694 
	C1489.052002,332.668304 1492.760986,334.196808 1494.998047,328.805328 
	C1505.246582,304.105133 1516.050293,279.635315 1526.640015,255.076508 
	C1527.274658,253.604736 1527.783936,252.078842 1528.546753,250.061600 
	C1524.406250,250.061600 1520.913696,250.332230 1517.483154,249.987534 
	C1513.857666,249.623245 1512.291504,251.089569 1510.986694,254.380249 
	C1503.823120,272.446045 1496.401367,290.409485 1489.058594,308.404083 
	C1488.494507,309.786499 1487.855835,311.138397 1486.859009,313.393188 
	C1479.752808,295.878967 1473.141602,279.564514 1466.514160,263.256653 
	C1460.843384,249.303177 1460.835205,249.306488 1445.109131,250.296890 
	C1447.974243,256.978210 1450.770874,263.499603 1453.879150,270.717529 
M1829.785522,312.602661 
	C1830.218994,320.586792 1833.053711,327.337006 1840.568359,330.981567 
	C1849.148560,335.142883 1857.976440,334.733063 1866.637329,330.981659 
	C1867.642334,330.546356 1868.884277,329.274231 1868.955200,328.311951 
	C1869.226685,324.625519 1869.064819,320.907227 1869.064819,316.933289 
	C1866.337158,317.894592 1864.349365,318.710785 1862.296143,319.299683 
	C1850.375244,322.718842 1844.193848,318.147675 1844.174805,305.928925 
	C1844.159058,295.937592 1844.172485,285.946198 1844.172852,275.954834 
	C1844.173096,271.862518 1844.172852,267.770203 1844.172852,263.184998 
	C1852.926880,263.184998 1860.998047,263.184998 1869.138428,263.184998 
	C1869.138428,258.560333 1869.138428,254.456894 1869.138428,249.944321 
	C1860.775146,249.944321 1852.682495,249.944321 1844.091797,249.944321 
	C1844.091797,241.008957 1844.091797,232.474838 1844.091797,223.149689 
	C1839.766357,225.485199 1835.993164,227.189407 1832.631104,229.493271 
	C1831.179321,230.488083 1829.856079,232.668015 1829.724976,234.404053 
	C1829.342041,239.475159 1829.588989,244.593826 1829.588989,250.222443 
	C1824.158813,250.222443 1819.258423,250.222443 1814.427734,250.222443 
	C1814.427734,254.853592 1814.427734,258.933685 1814.427734,263.439941 
	C1819.519043,263.439941 1824.296265,263.439941 1829.725586,263.439941 
	C1829.725586,279.816132 1829.725586,295.765045 1829.785522,312.602661 
M1392.898315,422.045105 
	C1396.833252,422.045105 1400.768188,422.045105 1405.609985,422.045105 
	C1400.328247,414.269409 1395.525513,407.198822 1390.533813,399.850220 
	C1391.856323,399.111053 1392.837280,398.589081 1393.793091,398.024261 
	C1401.214478,393.638672 1404.778687,385.980164 1403.609253,377.233185 
	C1402.414917,368.300659 1397.490112,361.728790 1388.796265,360.605011 
	C1376.551758,359.022217 1364.070923,359.267029 1351.539795,358.723846 
	C1351.539795,380.483185 1351.539795,401.061554 1351.539795,421.718323 
	C1356.203735,421.718323 1360.595581,421.718323 1365.446289,421.718323 
	C1365.446289,414.988678 1365.446289,408.578308 1365.446289,402.494415 
	C1372.349609,400.842316 1377.475464,401.906891 1380.604736,408.666016 
	C1382.399292,412.542450 1385.172974,416.010315 1387.808105,419.429169 
	C1388.751465,420.653168 1390.582886,421.192719 1392.898315,422.045105 
M1013.944641,376.595367 
	C1011.362915,386.574463 1011.520508,396.427948 1015.954651,405.860840 
	C1025.461670,426.085693 1056.005371,429.546600 1068.385620,411.700104 
	C1067.654541,410.699768 1066.912354,409.618683 1066.104126,408.589478 
	C1062.290405,403.732910 1061.396362,403.582001 1056.296631,406.845520 
	C1055.596924,407.293335 1054.891602,407.733582 1054.173584,408.151337 
	C1044.504517,413.777527 1034.464233,410.087219 1031.020996,399.448120 
	C1028.593140,391.946533 1028.677490,384.285919 1031.292725,376.870209 
	C1034.896484,366.651184 1043.917236,365.461945 1052.614136,367.746277 
	C1053.707520,368.033447 1054.778809,369.999847 1055.100098,371.366852 
	C1056.926514,379.138794 1057.393677,379.528168 1065.978271,378.314819 
	C1065.978271,375.264862 1065.978271,372.134766 1065.978271,369.004669 
	C1065.978271,358.155792 1065.978271,358.155762 1055.204956,355.567963 
	C1035.622192,350.864075 1020.859314,358.134491 1013.944641,376.595367 
M270.351318,395.480286 
	C270.540100,400.132660 270.444550,404.818634 270.989960,409.428833 
	C271.664154,415.127228 274.827484,419.519104 280.216553,421.509796 
	C289.482330,424.932587 298.002625,422.824249 306.114532,417.293732 
	C305.256531,415.856506 304.598907,414.903992 304.090546,413.877563 
	C301.923584,409.502350 299.757751,406.382294 293.885712,409.625824 
	C290.732666,411.367462 287.248016,408.922028 287.152740,405.176941 
	C286.836395,392.740540 287.033173,380.291077 287.033173,367.471497 
	C292.900391,367.471497 298.338379,367.471497 304.009064,367.471497 
	C304.009064,363.494873 304.009064,359.896942 304.009064,355.833954 
	C298.280212,355.833954 292.697174,355.833954 286.904938,355.833954 
	C286.904938,352.057892 286.904938,348.743896 286.904938,345.429901 
	C286.904938,342.135803 286.904938,338.841675 286.904938,335.237701 
	C285.354431,335.162994 284.235718,335.076080 283.115997,335.060455 
	C275.228516,334.950470 275.253998,334.959808 273.856720,342.545227 
	C273.047302,346.939270 272.139893,351.315308 271.488617,354.622589 
	C267.987915,358.651276 260.051483,353.499603 260.426147,362.561523 
	C260.743134,370.228333 266.807648,366.215088 270.351440,368.336578 
	C270.351440,376.902252 270.351440,385.694244 270.351318,395.480286 
M1884.366333,421.790070 
	C1888.918579,421.790070 1893.470825,421.790070 1898.432007,421.790070 
	C1897.767822,419.964081 1897.330078,418.564209 1896.759033,417.221008 
	C1890.007568,401.340637 1883.243652,385.465515 1876.467529,369.595642 
	C1871.641846,358.293823 1871.631348,358.298279 1858.992920,359.159241 
	C1850.193237,379.862854 1841.334839,400.704315 1832.470093,421.561127 
	C1833.184326,421.838196 1833.337158,421.944092 1833.494995,421.952057 
	C1845.898926,422.578003 1845.837280,422.549622 1850.968994,411.176056 
	C1851.564697,409.855835 1853.274658,408.191101 1854.518311,408.148224 
	C1862.482422,407.873932 1870.460571,408.008331 1878.464844,408.008331 
	C1880.359009,412.529816 1882.146606,416.796722 1884.366333,421.790070 
M1320.478149,421.557251 
	C1325.172485,421.764435 1329.866821,421.971619 1335.210083,422.207428 
	C1326.287476,401.271820 1317.743774,381.142853 1309.052734,361.077820 
	C1308.618774,360.075806 1306.968262,359.186951 1305.774170,359.016571 
	C1303.491699,358.690796 1301.111084,359.106537 1298.806152,358.870880 
	C1296.223511,358.606873 1294.969360,359.642639 1294.048218,361.993591 
	C1291.931274,367.395538 1289.540039,372.689636 1287.274292,378.033539 
	C1281.140381,392.500977 1275.013794,406.971497 1268.724487,421.817993 
	C1273.676758,421.817993 1278.098511,421.817993 1282.677368,421.817993 
	C1283.069214,421.004395 1283.534790,420.136139 1283.915527,419.232178 
	C1288.643311,408.006622 1288.640137,407.991058 1301.025879,408.012817 
	C1305.511841,408.020691 1311.120850,406.494507 1314.176270,408.612518 
	C1317.411621,410.855316 1318.218506,416.601410 1320.478149,421.557251 
M1639.750366,385.170746 
	C1634.575195,397.314026 1629.400024,409.457306 1624.144897,421.787903 
	C1637.585815,422.643311 1637.687134,422.686188 1642.602173,411.066284 
	C1643.636719,408.620453 1644.869995,407.893707 1647.372192,407.953613 
	C1653.861694,408.109009 1660.365967,408.200623 1666.846802,407.918182 
	C1669.803833,407.789307 1670.851074,409.086792 1671.837891,411.495605 
	C1676.289551,422.362488 1676.348145,422.341187 1687.931885,422.029816 
	C1688.563232,422.012817 1689.191772,421.892059 1689.793091,421.822906 
	C1689.847778,421.340057 1690.013306,420.961914 1689.902832,420.700592 
	C1681.494141,400.828430 1673.094116,380.952454 1664.549683,361.138733 
	C1664.112183,360.124115 1662.493164,359.213776 1661.299927,359.019470 
	C1659.191284,358.676086 1656.967285,359.104980 1654.827148,358.876465 
	C1651.911499,358.565216 1650.363159,359.595062 1649.261597,362.413116 
	C1646.361572,369.830994 1643.114258,377.113098 1639.750366,385.170746 
M919.036377,407.014496 
	C919.036377,379.948914 919.036377,352.883331 919.036377,325.945374 
	C910.028931,325.945374 901.632690,325.945374 893.274414,325.945374 
	C892.515503,335.253418 892.515503,335.253418 902.514771,338.936646 
	C902.514771,362.125153 902.514771,385.383972 902.514771,408.626465 
	C899.567871,409.775299 895.626221,410.126709 894.091797,412.232300 
	C892.447205,414.489227 893.067688,418.396759 892.683044,421.727417 
	C905.115784,421.727417 916.824402,421.727417 928.501526,421.727417 
	C929.342773,412.469086 929.335693,412.489532 920.693665,409.483002 
	C920.044006,409.256989 919.597656,408.446655 919.036377,407.014496 
M488.071350,422.016785 
	C488.587311,419.349518 490.419830,415.732300 489.330872,414.223053 
	C487.377502,411.515778 483.667786,410.075714 479.855347,407.552216 
	C479.855347,381.206207 479.855347,353.605347 479.855347,325.879852 
	C471.080292,325.879852 462.682220,325.879852 454.317535,325.879852 
	C453.179565,335.492584 453.179565,335.492584 463.312805,338.776245 
	C463.312805,362.125580 463.312805,385.521118 463.312805,408.810211 
	C453.173309,412.333588 453.173309,412.333588 454.343079,422.034424 
	C465.239014,422.034424 476.192535,422.034424 488.071350,422.016785 
M1252.917725,362.395996 
	C1240.334717,356.662323 1227.132202,360.284210 1214.234497,359.117767 
	C1214.234497,380.513763 1214.234497,401.193207 1214.234497,421.743774 
	C1218.847534,421.743774 1223.096313,421.743774 1227.761108,421.743774 
	C1227.761108,415.534058 1227.761108,409.613953 1227.761108,403.029327 
	C1232.790405,403.029327 1237.417114,403.269775 1242.010620,402.980347 
	C1252.218628,402.337128 1260.130493,396.302155 1262.596558,387.624207 
	C1265.380371,377.827881 1262.039429,368.679016 1252.917725,362.395996 
M1600.466553,375.163635 
	C1601.806885,375.052246 1603.748047,375.461914 1604.378296,374.734894 
	C1606.529175,372.254364 1608.218506,369.373627 1610.311279,366.313416 
	C1599.528076,358.776276 1588.240601,355.761810 1575.866577,360.772766 
	C1568.298218,363.837555 1564.905029,370.037750 1564.983398,378.184540 
	C1565.058472,385.995361 1569.157715,390.910522 1576.130981,393.674805 
	C1578.899658,394.772339 1581.817261,395.490845 1584.657104,396.412537 
	C1587.966187,397.486389 1591.481445,398.197662 1594.482056,399.841919 
	C1596.158569,400.760437 1598.136719,403.447632 1597.878662,404.985413 
	C1597.561401,406.876587 1595.343750,409.082672 1593.416382,409.900055 
	C1591.288574,410.802338 1588.356567,410.942352 1586.131714,410.256592 
	C1580.705688,408.584167 1575.485962,406.242859 1569.839111,404.036499 
	C1567.715576,406.578613 1565.192139,409.599426 1562.700928,412.581635 
	C1572.021484,421.999664 1588.997192,425.895020 1600.361328,420.783752 
	C1603.940918,419.173767 1607.556030,416.242615 1609.631470,412.954529 
	C1615.528809,403.611023 1611.975220,392.403931 1601.829346,387.941193 
	C1595.790039,385.284698 1589.148560,384.008209 1583.068726,381.426208 
	C1581.192017,380.629272 1578.987305,377.363770 1579.274048,375.611664 
	C1579.569580,373.805054 1582.870850,371.013245 1584.589966,371.194031 
	C1589.718872,371.733398 1594.716675,373.518799 1600.466553,375.163635 
M1496.285278,362.072784 
	C1489.302856,358.874756 1482.041870,357.656281 1474.409668,358.920258 
	C1465.194214,360.446411 1458.659546,366.863739 1457.959351,375.129639 
	C1457.100098,385.274170 1460.686768,390.776459 1470.779907,394.315796 
	C1475.161133,395.852112 1479.745728,396.811707 1484.117310,398.371429 
	C1487.454346,399.562042 1491.789185,400.460052 1490.931885,405.464813 
	C1490.082886,410.420624 1485.720459,410.329803 1481.930054,410.692749 
	C1480.958374,410.785736 1479.875977,410.704559 1478.972290,410.364166 
	C1473.651123,408.359863 1468.367676,406.255219 1462.646484,404.018188 
	C1460.579590,406.493164 1458.053101,409.518402 1455.188110,412.948914 
	C1466.352661,421.751343 1478.245483,425.358032 1491.765503,421.385712 
	C1499.985718,418.970520 1504.554199,412.738037 1504.938965,404.505646 
	C1505.327515,396.196869 1501.792236,390.586914 1493.353516,387.244385 
	C1488.122559,385.172363 1482.605103,383.829193 1477.237305,382.093750 
	C1474.076904,381.072052 1471.116089,379.623505 1471.792236,375.554474 
	C1472.504395,371.269775 1476.115967,370.319183 1479.411987,370.933594 
	C1484.987183,371.972931 1490.395142,373.909119 1496.610840,375.678131 
	C1497.101318,374.985657 1498.249756,373.395844 1499.364502,371.782806 
	C1500.565796,370.044525 1501.735474,368.284485 1503.082397,366.292175 
	C1500.858643,364.884857 1498.904297,363.648132 1496.285278,362.072784 
M343.514069,381.052307 
	C346.831360,373.234192 351.294159,369.917084 358.375458,370.006134 
	C367.484650,370.120667 367.486420,370.120911 368.893341,360.950592 
	C368.994232,360.292816 369.308411,359.498199 369.062988,358.989319 
	C368.391541,357.597107 367.750244,355.532593 366.608154,355.133575 
	C360.038483,352.838226 354.132477,354.583496 349.098877,359.174225 
	C346.854797,361.220825 344.942902,363.631653 342.460388,366.334229 
	C342.111145,363.560028 342.255005,361.295258 341.460144,359.430695 
	C340.783630,357.843750 339.088776,355.647827 337.736053,355.568451 
	C330.998047,355.173004 324.224274,355.387787 317.537201,355.387787 
	C316.687256,365.360077 316.687256,365.360077 326.838318,368.586304 
	C326.838318,381.994446 326.838318,395.437622 326.838318,408.814789 
	C316.354858,412.511078 315.796539,413.342072 317.939575,421.792053 
	C329.551941,421.792053 341.152100,421.792053 352.723785,421.792053 
	C353.621643,412.625336 353.572723,412.745850 345.738708,409.566406 
	C344.594818,409.102112 343.561127,406.870697 343.522125,405.428619 
	C343.310638,397.606781 343.427673,389.776093 343.514069,381.052307 
M1650.800293,250.873901 
	C1645.990601,250.522385 1641.180908,250.170868 1636.424194,249.823227 
	C1636.424194,277.857910 1636.424194,304.921021 1636.424194,332.094666 
	C1641.367310,332.094666 1645.984741,332.094666 1650.503296,332.094666 
	C1650.661011,331.711304 1650.773804,331.564026 1650.774780,331.415924 
	C1650.856812,319.755707 1650.777466,308.092010 1651.041382,296.436035 
	C1651.394043,280.856781 1659.678101,268.944397 1672.457275,265.516083 
	C1675.798340,264.619751 1679.319092,264.393341 1682.958252,263.828064 
	C1682.958252,258.980042 1682.958252,254.076706 1682.958252,248.943054 
	C1669.119019,247.958099 1659.331177,254.403244 1650.925903,265.854309 
	C1650.925903,260.331299 1650.925903,256.069550 1650.800293,250.873901 
M1716.421631,399.660858 
	C1716.023560,398.567291 1715.471680,397.503662 1715.251587,396.375397 
	C1713.614868,387.976105 1714.823730,380.287415 1721.947998,374.734985 
	C1728.244507,369.827515 1735.204224,369.911438 1742.132202,373.494934 
	C1744.432129,374.684540 1746.497559,376.327271 1748.863159,377.890289 
	C1751.726929,374.577667 1754.520386,371.346375 1757.275879,368.159027 
	C1744.699951,354.851410 1721.315674,354.950073 1708.892334,368.001953 
	C1696.103027,381.438263 1697.275879,403.984650 1711.378540,415.792572 
	C1724.973267,427.175232 1747.582520,425.176575 1757.438721,411.683685 
	C1754.533813,409.040314 1751.623779,406.392395 1748.652832,403.688995 
	C1734.529053,413.430237 1724.057495,412.423248 1716.421631,399.660858 
M574.581787,181.324677 
	C571.231079,190.423920 572.574341,198.735657 579.351624,205.722122 
	C585.694580,212.260773 593.595276,214.005661 602.244446,211.386459 
	C612.007751,208.429840 618.342529,199.171341 617.933105,189.031616 
	C617.535278,179.176697 610.347534,170.314102 600.947937,168.088699 
	C590.139282,165.529709 580.577759,170.128143 574.581787,181.324677 
M471.850800,116.875191 
	C473.230896,117.452950 474.575531,118.143295 475.996765,118.590378 
	C485.944305,121.719666 496.672424,117.697327 502.007629,108.888412 
	C507.259491,100.217148 506.060608,88.947533 499.105408,81.607300 
	C492.012970,74.122238 480.656067,72.473228 471.590424,77.612137 
	C456.518250,86.155937 456.320312,106.142975 471.850800,116.875191 
M1989.416992,178.504883 
	C1992.661499,161.654968 1980.851807,147.807312 1965.410278,150.355347 
	C1954.501343,152.155426 1946.780518,160.774109 1946.398804,171.577942 
	C1946.032715,181.933807 1953.477295,191.423553 1963.755859,193.703354 
	C1974.509644,196.088516 1984.591309,190.359009 1989.416992,178.504883 
M1952.998535,371.536530 
	C1955.421021,367.671906 1957.843628,363.807312 1960.726685,359.207947 
	C1956.613525,359.207947 1953.469482,359.492554 1950.399536,359.137482 
	C1946.365479,358.670990 1944.091675,360.258270 1942.168579,363.752411 
	C1938.429077,370.547363 1934.220581,377.084198 1929.835938,384.341125 
	C1925.204346,376.539917 1921.072998,369.401306 1916.717407,362.402252 
	C1915.879639,361.056122 1914.231201,359.476471 1912.836304,359.351715 
	C1908.442627,358.958862 1903.991577,359.206940 1898.915039,359.206940 
	C1900.052368,361.181091 1900.804443,362.600555 1901.660522,363.954437 
	C1907.969604,373.934113 1914.417358,383.829285 1920.532227,393.926270 
	C1921.899048,396.183380 1922.641357,399.109314 1922.767212,401.770050 
	C1923.079712,408.371643 1922.869873,414.997955 1922.869873,421.728821 
	C1927.689087,421.728821 1932.067627,421.728821 1936.794922,421.728821 
	C1936.794922,415.117279 1936.465088,408.793640 1936.925415,402.528015 
	C1937.178589,399.082825 1938.173584,395.403381 1939.863159,392.410522 
	C1943.781616,385.470123 1948.325439,378.882751 1952.998535,371.536530 
M1775.578735,376.503326 
	C1775.578735,391.594116 1775.578735,406.684875 1775.578735,421.747375 
	C1790.871826,421.747375 1805.602173,421.747375 1820.384277,421.747375 
	C1820.384277,417.558014 1820.384277,413.672211 1820.384277,409.298584 
	C1809.981201,409.298584 1799.903687,409.298584 1789.340332,409.298584 
	C1789.340332,392.420105 1789.340332,376.028320 1789.340332,359.432465 
	C1784.598145,359.432465 1780.356689,359.432465 1775.578979,359.432465 
	C1775.578979,364.931274 1775.578979,370.218597 1775.578735,376.503326 
M1411.095947,316.494629 
	C1411.095947,321.623077 1411.095947,326.751495 1411.095947,331.981323 
	C1416.238770,331.981323 1420.963013,331.981323 1425.580322,331.981323 
	C1425.580322,304.536865 1425.580322,277.450653 1425.580322,250.336533 
	C1420.670166,250.336533 1416.086060,250.336533 1411.095947,250.336533 
	C1411.095947,272.242249 1411.095947,293.869537 1411.095947,316.494629 
M1782.057739,306.500000 
	C1782.057739,314.955902 1782.057739,323.411804 1782.057739,331.916321 
	C1787.250000,331.916321 1791.943481,331.916321 1796.553467,331.916321 
	C1796.553467,304.454498 1796.553467,277.389648 1796.553467,250.338470 
	C1791.612061,250.338470 1787.022827,250.338470 1782.057739,250.338470 
	C1782.057739,268.909729 1782.057739,287.204865 1782.057739,306.500000 
M1423.344360,400.499756 
	C1423.344360,407.600159 1423.344360,414.700592 1423.344360,421.877594 
	C1428.274414,421.877594 1432.567993,421.877594 1436.944702,421.877594 
	C1436.944702,400.962189 1436.944702,380.221741 1436.944702,359.459137 
	C1432.420654,359.459137 1428.157715,359.459137 1423.344360,359.459137 
	C1423.344360,372.973755 1423.344360,386.236786 1423.344360,400.499756 
M1909.592407,220.718399 
	C1914.551025,226.884811 1920.453613,228.694641 1926.628418,225.942139 
	C1932.260864,223.431412 1935.660889,217.147919 1934.519165,211.269028 
	C1933.437866,205.700165 1930.139282,201.905960 1924.735107,200.405685 
	C1919.552734,198.966995 1914.781250,200.237198 1911.120483,204.335648 
	C1906.883911,209.078949 1906.575073,214.439240 1909.592407,220.718399 
M1523.854004,400.904785 
	C1531.802734,400.904785 1539.751465,400.904785 1547.880249,400.904785 
	C1547.880249,396.280853 1547.880249,392.185211 1547.880249,387.747070 
	C1539.526978,387.747070 1531.377319,387.739655 1523.227783,387.758881 
	C1522.430786,387.760742 1521.634155,387.926819 1520.471558,388.057983 
	C1520.471558,391.724426 1520.319824,395.200500 1520.583862,398.644745 
	C1520.645874,399.452698 1522.114136,400.152771 1523.854004,400.904785 
M850.379150,346.551300 
	C852.777344,346.113953 855.925049,346.490784 857.441101,345.095123 
	C863.314880,339.688141 868.669128,333.716766 875.046143,327.094360 
	C868.424988,327.094360 863.180298,327.003937 857.943054,327.161713 
	C856.723267,327.198486 855.000427,327.730835 854.409119,328.628204 
	C850.680481,334.287292 847.205566,340.113617 843.235840,346.551270 
	C846.217651,346.551270 847.870911,346.551270 850.379150,346.551300 
z"/>
<path fill="#967DAB" opacity="1.000000" stroke="none" 
	d="
M737.468628,444.000000 
	C737.006348,443.824280 737.012695,443.648560 737.534546,443.248352 
	C749.617371,442.979004 761.184631,442.934113 772.751892,442.889221 
	C772.803101,443.072144 772.854370,443.255066 772.952820,443.718994 
	C761.312439,444.000000 749.624878,444.000000 737.468628,444.000000 
z"/>
<path fill="#B51328" opacity="1.000000" stroke="none" 
	d="
M522.816528,130.771255 
	C527.872559,125.565964 532.335510,119.562752 538.084656,115.290062 
	C566.826050,93.929688 598.411987,89.355217 631.389954,103.264923 
	C664.231689,117.117142 683.044739,142.942413 687.708923,178.171844 
	C694.684143,230.856842 653.745911,279.471832 600.880737,282.186279 
	C599.250488,282.269989 597.612183,282.196899 595.724121,282.196899 
	C595.724121,268.431091 595.724121,254.975677 595.724121,241.083206 
	C599.320374,240.472427 603.076477,240.045837 606.728394,239.179718 
	C629.014709,233.894119 644.067627,216.234695 646.380615,192.815857 
	C648.417603,172.191742 636.157837,151.347015 616.656311,142.276947 
	C596.783325,133.034149 573.238586,137.512527 557.826904,153.454895 
	C556.912476,154.400833 555.923645,155.274841 554.506226,155.933411 
	C550.006897,152.292496 546.046753,148.804489 541.916687,145.530838 
	C535.611633,140.533188 529.189148,135.683670 522.816528,130.771255 
z"/>
<path fill="#967DAB" opacity="1.000000" stroke="none" 
	d="
M522.489990,130.859253 
	C529.189148,135.683670 535.611633,140.533188 541.916687,145.530838 
	C546.046753,148.804489 550.006897,152.292496 554.180908,156.037491 
	C549.400452,161.477112 545.030090,167.278976 539.475342,171.534866 
	C502.162048,200.123169 450.438110,197.383301 417.292114,164.182571 
	C391.489563,138.337387 382.827179,106.650024 393.258240,71.477531 
	C403.909851,35.561417 428.778564,13.844254 465.487976,5.925409 
	C467.912018,5.402503 470.408844,5.113660 472.886536,4.970130 
	C475.688385,4.807822 478.506866,4.932709 481.701721,4.932709 
	C481.701721,18.530663 481.701721,31.920361 481.701721,45.505516 
	C477.569122,46.306774 473.309937,46.866524 469.197937,47.973221 
	C443.379669,54.921917 428.671265,79.167404 431.353943,102.662384 
	C434.421021,129.523285 455.805664,148.731812 481.601776,149.100586 
	C497.989655,149.334854 511.239899,142.800415 522.489990,130.859253 
z"/>
<path fill="#65053F" opacity="1.000000" stroke="none" 
	d="
M1926.000000,297.042816 
	C1916.358887,297.042816 1907.217651,297.042816 1897.632080,297.042816 
	C1899.138550,307.136871 1903.642090,314.897491 1912.828003,318.682800 
	C1926.659668,324.382629 1938.474976,320.016174 1948.842529,309.419373 
	C1951.899048,312.122986 1954.858521,314.740875 1958.178711,317.677856 
	C1950.672974,326.958160 1941.347778,332.711609 1929.552490,333.907166 
	C1910.629395,335.825165 1895.042480,327.662354 1887.203613,312.061279 
	C1879.109131,295.951202 1881.469238,274.398651 1893.125732,261.481354 
	C1904.420166,248.965469 1918.658936,245.402756 1934.435669,250.426193 
	C1950.528198,255.550217 1957.739258,268.272278 1959.875488,284.233032 
	C1960.419312,288.297028 1959.957031,292.495697 1959.957031,297.042816 
	C1948.741699,297.042816 1937.620850,297.042816 1926.000000,297.042816 
M1923.240234,261.239594 
	C1909.293823,261.368195 1898.356445,271.662598 1898.150513,285.087677 
	C1913.719727,285.087677 1929.284790,285.087677 1944.853638,285.087677 
	C1944.661743,272.679932 1936.826904,263.820251 1923.240234,261.239594 
z"/>
<path fill="#65053F" opacity="1.000000" stroke="none" 
	d="
M1541.026123,309.873077 
	C1535.652832,296.463806 1535.901611,283.493469 1541.855835,270.782288 
	C1549.204834,255.092758 1564.590332,246.738144 1581.836304,248.774109 
	C1598.216553,250.707870 1610.441895,262.112152 1613.832642,279.215942 
	C1614.948730,284.845459 1614.983276,290.689362 1615.556030,296.908875 
	C1594.129395,296.908875 1573.540771,296.908875 1552.464111,296.908875 
	C1553.903809,307.128479 1558.429321,314.853729 1567.584351,318.650574 
	C1581.421021,324.388855 1593.259644,320.062622 1603.608887,309.436646 
	C1606.667969,312.119843 1609.632812,314.720337 1612.958984,317.637817 
	C1603.587769,329.265930 1591.663208,334.768127 1576.895386,334.128448 
	C1560.161133,333.403595 1548.432495,325.126801 1541.026123,309.873077 
M1580.682617,261.668823 
	C1566.112061,259.567078 1552.611450,270.982117 1553.156616,285.362335 
	C1567.718628,285.362335 1582.299927,285.367737 1596.881104,285.350067 
	C1597.839722,285.348907 1598.798218,285.171570 1599.739868,285.077850 
	C1599.393433,273.500610 1592.247803,264.487488 1580.682617,261.668823 
z"/>
<path fill="#64033D" opacity="1.000000" stroke="none" 
	d="
M772.814087,442.455688 
	C761.184631,442.934113 749.617371,442.979004 737.592285,442.991028 
	C737.088013,441.629364 737.165527,440.282318 736.973022,438.975098 
	C736.290466,434.340912 738.397095,432.144470 742.906006,431.774109 
	C744.040588,431.680908 745.140564,431.164948 746.500488,430.772888 
	C746.500488,410.026398 746.500488,389.295715 746.500488,368.597260 
	C736.563293,365.300720 736.563293,365.300720 737.264832,355.399231 
	C743.950867,355.399231 750.793396,354.763489 757.391907,355.753723 
	C759.617004,356.087646 761.223083,360.546509 762.554932,362.361053 
	C767.537354,359.982697 772.877319,356.387604 778.754944,354.857147 
	C789.286743,352.114746 798.485352,356.577942 803.275940,366.384033 
	C810.002930,380.153442 810.260193,394.316559 803.419495,408.182770 
	C796.131104,422.956604 777.493042,428.295074 763.390137,417.191467 
	C763.390137,421.795563 763.390137,426.146423 763.390137,430.546478 
	C772.917786,434.068726 772.917786,434.068726 772.814087,442.455688 
M791.031738,390.333862 
	C790.309509,384.933289 790.253479,379.330322 788.690308,374.185211 
	C786.879517,368.224854 781.114136,365.922485 774.414734,367.235626 
	C767.567383,368.577759 763.037903,373.432617 763.033325,379.448120 
	C763.028198,386.277191 763.409607,393.133881 762.913208,399.926666 
	C762.514221,405.386292 765.396118,407.881165 769.676086,409.570068 
	C778.305603,412.975372 786.228455,409.356445 789.206055,400.514221 
	C790.200195,397.562225 790.428833,394.352478 791.031738,390.333862 
z"/>
<path fill="#64043E" opacity="1.000000" stroke="none" 
	d="
M637.224182,392.070923 
	C636.605835,411.013367 625.034119,423.016479 606.609863,422.798553 
	C597.415039,422.689819 588.226685,420.506256 579.089355,418.945465 
	C577.914185,418.744720 576.250366,416.672028 576.199097,415.410187 
	C575.916321,408.449310 576.063965,401.470917 576.063965,394.560883 
	C585.402710,392.896820 586.047302,393.135193 587.529053,401.876343 
	C588.106201,405.281128 589.510010,406.986786 592.766846,407.186981 
	C598.539307,407.541870 604.366150,408.366669 610.082458,407.905884 
	C615.998718,407.429016 619.564148,403.060638 620.306458,397.317017 
	C621.065186,391.446320 619.034546,387.668640 613.194824,385.026459 
	C609.727234,383.457520 606.029846,382.396393 602.436157,381.105957 
	C599.624939,380.096558 596.742188,379.249298 594.015747,378.047455 
	C581.512756,372.536011 576.333801,364.479645 577.461609,352.534576 
	C578.593689,340.544342 586.669617,331.105591 598.612427,328.255341 
	C610.487915,325.421143 621.751343,327.762360 632.457947,333.148376 
	C633.622681,333.734344 634.841919,335.518860 634.892273,336.792633 
	C635.141296,343.089783 635.005615,349.402191 635.005615,355.649261 
	C625.524414,357.158173 625.076599,357.071869 623.604187,348.184021 
	C622.992676,344.492950 621.345154,342.910309 617.951660,342.697754 
	C613.325317,342.407990 608.653687,341.756104 604.071716,342.126923 
	C598.700317,342.561615 595.047546,346.420715 594.302002,351.352875 
	C593.511230,356.583679 596.104431,360.045410 600.621765,362.061981 
	C604.707703,363.885956 608.991394,365.262054 613.155396,366.917572 
	C617.009277,368.449738 620.911194,369.903992 624.631226,371.721588 
	C632.847961,375.736298 637.226013,382.316589 637.224182,392.070923 
z"/>
<path fill="#64043E" opacity="1.000000" stroke="none" 
	d="
M75.867661,351.135132 
	C75.867783,345.515442 72.730705,343.288635 68.075378,343.197784 
	C61.482075,343.069061 54.622475,342.277222 48.334854,343.739227 
	C34.789223,346.888824 26.966871,359.272766 27.463430,375.622406 
	C27.617373,380.691010 28.503733,385.989319 30.296991,390.710632 
	C36.552578,407.180634 57.736919,413.475067 72.392616,403.588318 
	C79.440384,398.833893 79.444458,398.830139 85.215729,405.004730 
	C86.228149,406.087891 87.190559,407.217743 88.308319,408.474792 
	C80.799416,417.674255 71.019058,422.047852 59.625561,422.897797 
	C22.842745,425.641785 5.163281,396.923248 9.577213,367.325287 
	C14.141555,336.718719 42.270947,320.454926 73.804626,329.472137 
	C78.240715,330.740662 82.519096,332.560669 86.778015,334.092133 
	C86.778015,341.980621 86.778015,349.423401 86.778015,356.835510 
	C78.079155,358.104340 77.253250,357.691467 75.867661,351.135132 
z"/>
<path fill="#66063F" opacity="1.000000" stroke="none" 
	d="
M1329.995361,273.291077 
	C1328.911255,278.154572 1327.276611,282.649506 1327.171753,287.179810 
	C1326.828857,301.992432 1327.043091,316.817993 1327.043091,331.985413 
	C1322.126709,331.985413 1317.425293,331.985413 1312.516113,331.985413 
	C1312.516113,304.731903 1312.516113,277.656647 1312.516113,250.319687 
	C1317.334717,250.319687 1321.913940,250.319687 1326.812988,250.319687 
	C1326.812988,253.321991 1326.812988,256.264862 1326.812988,259.824097 
	C1327.791016,259.277496 1328.370117,259.113586 1328.717285,258.736328 
	C1337.329224,249.377045 1348.134644,247.054688 1360.184326,249.091919 
	C1372.929199,251.246735 1382.627319,261.189148 1383.930298,274.595825 
	C1384.909790,284.673798 1384.634277,294.880493 1384.768555,305.031891 
	C1384.885132,313.854462 1384.792847,322.679810 1384.792847,331.919128 
	C1379.895630,331.919128 1375.185791,331.919128 1369.989502,331.919128 
	C1369.989502,318.208649 1370.018188,304.431274 1369.970947,290.654175 
	C1369.957764,286.830231 1370.105713,282.945251 1369.505615,279.196167 
	C1368.161865,270.803467 1363.854126,264.683472 1355.054810,262.737030 
	C1346.019653,260.738464 1338.247437,262.891418 1332.126953,270.063568 
	C1331.375366,270.944305 1330.801392,271.976624 1329.995361,273.291077 
z"/>
<path fill="#670741" opacity="1.000000" stroke="none" 
	d="
M1271.016357,257.089050 
	C1271.016235,254.626312 1271.016235,252.652267 1271.016235,250.367249 
	C1275.875854,250.367249 1280.444946,250.367249 1285.334595,250.367249 
	C1285.334595,277.448944 1285.334595,304.522491 1285.334595,331.968231 
	C1280.840576,331.968231 1276.264282,331.968231 1271.260742,331.968231 
	C1271.260742,329.202423 1271.260742,326.306396 1271.260742,322.542389 
	C1270.012817,323.458313 1269.379639,323.802734 1268.897095,324.294830 
	C1259.107666,334.276367 1247.271362,336.134918 1234.398682,332.426636 
	C1222.860474,329.102722 1215.248535,320.703949 1214.529785,309.217010 
	C1213.308960,289.701630 1214.193970,270.054504 1214.193970,250.256805 
	C1218.432617,250.256805 1222.879150,250.256805 1227.796509,250.256805 
	C1227.890503,251.615952 1228.071411,253.034454 1228.073853,254.453262 
	C1228.096436,267.605713 1228.087280,280.758209 1228.090576,293.910675 
	C1228.090942,295.575439 1228.066528,297.241913 1228.128906,298.904724 
	C1228.638062,312.469452 1236.173462,320.387787 1248.572388,320.410797 
	C1261.263550,320.434326 1270.694214,311.431274 1270.934814,298.532166 
	C1271.189331,284.884918 1271.007568,271.229523 1271.016357,257.089050 
z"/>
<path fill="#64033D" opacity="1.000000" stroke="none" 
	d="
M221.055634,368.699646 
	C213.883972,365.794342 206.368729,367.462677 201.645523,372.823975 
	C200.942307,373.622192 200.304947,374.818298 200.296036,375.836151 
	C200.200043,386.808105 200.236191,397.781189 200.236191,408.614807 
	C210.286484,412.587067 210.286484,412.587067 209.818756,421.720520 
	C198.110565,421.720520 186.381256,421.720520 174.657623,421.720520 
	C173.168137,412.826630 173.168137,412.826630 183.838470,408.710022 
	C183.838470,395.444336 183.838470,382.130737 183.838470,369.014191 
	C180.688751,367.552246 176.827713,366.840332 174.897522,364.521301 
	C173.362564,362.677124 174.187500,358.868744 173.920380,355.347656 
	C181.052460,355.347656 187.731812,354.831787 194.246658,355.640747 
	C196.390091,355.906921 198.107712,359.602325 199.919739,361.618073 
	C204.035858,359.682617 208.900589,356.228760 214.256149,355.096405 
	C230.093475,351.747986 241.531876,361.148041 241.969498,377.329865 
	C242.252853,387.807404 242.022827,398.298828 242.022827,408.655762 
	C252.279297,412.573181 252.279297,412.573181 251.708450,421.710571 
	C243.177094,421.710571 234.619614,421.710571 225.675552,421.710571 
	C225.675552,408.315826 225.714935,395.005463 225.654236,381.695557 
	C225.632874,377.011475 225.526398,372.274536 221.055634,368.699646 
z"/>
<path fill="#65063F" opacity="1.000000" stroke="none" 
	d="
M700.020874,385.001007 
	C700.020874,379.189728 700.020874,373.877838 700.020874,368.661072 
	C689.718018,365.333801 689.718018,365.333801 690.597229,355.657043 
	C698.946045,355.657043 707.343872,355.657043 716.422058,355.657043 
	C716.422058,358.673187 716.422058,361.781647 716.422058,364.890106 
	C716.422119,378.207733 716.347717,391.526337 716.518738,404.841766 
	C716.539551,406.460449 717.476440,409.002777 718.676331,409.519012 
	C726.462219,412.868896 726.524597,412.723938 725.844604,422.008301 
	C719.293701,422.008301 712.626221,422.516266 706.118225,421.720337 
	C703.971130,421.457764 702.235840,417.827789 699.973877,415.369873 
	C699.630798,415.612274 698.447876,416.402405 697.313293,417.256866 
	C689.074646,423.461761 680.020569,425.234314 670.596985,420.845642 
	C661.143982,416.443237 658.399963,407.723022 658.199402,398.077057 
	C657.995544,388.274933 658.154358,378.465271 658.154358,368.758423 
	C647.780884,365.016571 647.780884,365.016571 648.876343,355.648621 
	C657.342407,355.648621 665.857056,355.648621 674.849304,355.648621 
	C674.849304,364.962799 674.847046,374.076965 674.850281,383.191101 
	C674.852051,388.185150 674.794556,393.180511 674.886902,398.172974 
	C675.010315,404.852814 677.435059,408.747314 682.046326,409.951355 
	C687.729126,411.435150 697.198364,408.207031 699.530212,403.839447 
	C700.031311,402.900879 699.989990,401.611969 700.000488,400.482635 
	C700.046692,395.488922 700.020752,390.494568 700.020874,385.001007 
z"/>
<path fill="#65053F" opacity="1.000000" stroke="none" 
	d="
M1713.848022,274.827972 
	C1717.797607,277.450439 1721.375244,280.189423 1725.391235,281.898407 
	C1731.028320,284.297272 1737.104126,285.651062 1742.791260,287.949493 
	C1754.508789,292.685150 1759.650391,300.135559 1758.869751,310.490814 
	C1758.040894,321.484924 1750.605347,330.230621 1739.120483,332.749176 
	C1722.543457,336.384521 1708.020996,331.395874 1694.316895,321.218414 
	C1696.885864,317.571899 1699.243164,314.226013 1701.139893,311.533783 
	C1708.848511,314.629547 1715.954712,318.351624 1723.518921,320.201019 
	C1728.184326,321.341766 1733.682617,320.188751 1738.555664,319.018707 
	C1742.516479,318.067688 1745.266357,314.285797 1744.587891,310.288635 
	C1744.079956,307.295410 1741.805908,303.590027 1739.232788,302.174469 
	C1734.214722,299.413940 1728.427490,298.060364 1722.976074,296.076447 
	C1718.922974,294.601471 1714.739014,293.370972 1710.893799,291.465576 
	C1703.748291,287.924805 1699.043457,282.505493 1698.817627,273.985168 
	C1698.574829,264.828156 1702.306763,257.874695 1710.033447,253.098862 
	C1717.035767,248.770767 1724.827271,248.222015 1732.727173,249.090546 
	C1741.613281,250.067459 1749.784668,253.157791 1757.655273,258.495422 
	C1755.365234,262.304474 1753.188721,265.924713 1751.734497,268.343628 
	C1743.355713,265.975494 1735.873779,263.459259 1728.198120,261.891693 
	C1725.186646,261.276642 1721.529419,262.256226 1718.541870,263.449768 
	C1713.817261,265.337280 1712.474243,269.089905 1713.848022,274.827972 
z"/>
<path fill="#64043E" opacity="1.000000" stroke="none" 
	d="
M415.669128,383.828308 
	C418.150604,378.758514 417.527802,373.877777 414.030182,369.970459 
	C410.521210,366.050537 405.704803,366.353302 401.039398,367.925690 
	C399.318085,368.505768 397.663849,369.320526 396.039581,370.147186 
	C387.011963,374.741394 385.181580,374.095428 380.886536,364.388428 
	C391.617371,355.506409 403.712036,351.794922 417.426178,355.617065 
	C426.622650,358.180145 432.668823,366.404022 433.011871,376.614502 
	C433.369232,387.251190 433.091583,397.909241 433.091583,408.271667 
	C436.546906,409.890381 440.438904,410.626282 442.382233,412.974701 
	C443.885376,414.791260 442.948425,418.626953 443.117126,421.979767 
	C436.712158,421.979767 430.659821,422.626526 424.865479,421.685303 
	C422.276245,421.264679 420.205078,417.654907 417.490662,415.109833 
	C411.921844,419.930023 404.560364,423.572601 395.528595,423.055939 
	C386.455505,422.536987 379.645355,417.747192 378.007812,410.233307 
	C376.027344,401.145935 379.459167,394.064880 388.154907,389.738464 
	C396.658875,385.507477 405.805328,384.047943 415.669128,383.828308 
M417.110901,396.581879 
	C416.481171,395.705048 415.694855,393.993195 415.245361,394.077484 
	C409.131287,395.223999 402.852753,396.066742 397.103394,398.263275 
	C395.179901,398.998108 393.455658,403.521149 393.821045,405.989746 
	C394.136780,408.123016 397.265808,410.822296 399.641876,411.469360 
	C405.049774,412.942078 409.891907,410.645782 414.448029,407.462799 
	C418.369019,404.723572 416.714417,400.952545 417.110901,396.581879 
z"/>
<path fill="#65053F" opacity="1.000000" stroke="none" 
	d="
M517.226074,393.477844 
	C520.962585,409.298767 530.676636,414.067078 545.194824,407.596710 
	C545.346008,407.529327 545.476868,407.416565 545.627747,407.348389 
	C554.690674,403.253204 554.859314,403.305450 560.622803,411.977692 
	C553.175598,421.356445 536.645996,425.855804 523.176270,421.712891 
	C510.002563,417.661011 502.969971,407.983002 501.185394,394.758759 
	C500.424500,389.120331 500.571594,382.991486 501.950928,377.498535 
	C506.809570,358.149780 528.408142,348.549988 546.394409,357.231659 
	C556.896790,362.300995 563.563721,375.967651 561.388123,387.424377 
	C560.719604,390.944641 558.443909,390.903412 555.863831,390.901550 
	C544.206238,390.893188 532.547791,390.833618 520.892395,390.993896 
	C519.639893,391.011108 518.405396,392.336243 517.226074,393.477844 
M537.439697,380.999023 
	C540.533508,380.999023 543.627258,380.999023 546.748718,380.999023 
	C545.940674,370.534363 540.907471,365.631470 531.981079,366.059021 
	C523.535034,366.463562 517.911011,372.384186 518.009399,380.999054 
	C524.155518,380.999054 530.307007,380.999054 537.439697,380.999023 
z"/>
<path fill="#65053F" opacity="1.000000" stroke="none" 
	d="
M121.201630,390.899414 
	C118.112839,390.488831 117.763992,391.783630 118.001282,394.058380 
	C119.293282,406.443756 130.059326,413.323975 141.858475,409.178589 
	C143.421753,408.629364 144.942184,407.947815 146.454468,407.265503 
	C155.235092,403.303772 155.533051,403.388733 161.595154,412.363098 
	C159.548294,414.047943 157.645950,416.186249 155.279449,417.466614 
	C142.293625,424.492126 128.786179,426.117828 115.952225,417.924530 
	C102.987610,409.647797 99.606445,396.379059 101.605164,382.014526 
	C104.521011,361.058746 123.847618,349.394226 143.679962,355.918518 
	C158.209518,360.698364 163.428589,374.625122 161.775192,387.759918 
	C161.619049,389.000519 158.456940,390.715790 156.656494,390.757782 
	C145.002060,391.029785 133.338242,390.898499 121.201630,390.899414 
M139.904144,367.207947 
	C127.907455,363.723419 119.201286,369.218567 118.438538,380.771851 
	C128.006317,380.771851 137.574081,380.771851 147.271912,380.771851 
	C147.396210,374.991486 145.492432,370.534943 139.904144,367.207947 
z"/>
<path fill="#65053F" opacity="1.000000" stroke="none" 
	d="
M959.379272,390.899139 
	C958.033569,391.628845 956.357422,392.379303 956.376160,393.084686 
	C956.705627,405.465240 968.042053,413.274200 979.816528,409.353882 
	C981.387695,408.830719 982.919067,408.172577 984.433960,407.498383 
	C993.520142,403.454590 993.516724,403.446899 1000.283569,412.402069 
	C997.281189,414.578705 994.533020,417.324615 991.221436,418.837219 
	C978.939270,424.447327 966.360046,425.536652 954.494873,418.052490 
	C942.532410,410.506958 939.043030,398.527863 939.734863,385.158905 
	C940.900574,362.633179 961.322937,348.787598 982.398621,355.996155 
	C994.640686,360.183350 1002.860352,374.394073 1000.572388,387.073090 
	C999.984192,390.332428 998.135376,390.940887 995.304382,390.924927 
	C983.482483,390.858215 971.659973,390.898102 959.379272,390.899139 
M960.655762,380.998657 
	C969.046509,380.998657 977.437256,380.998657 985.864075,380.998657 
	C985.111755,371.446106 980.959778,366.659912 973.469543,366.080597 
	C965.337341,365.451691 958.835876,370.047028 957.036682,377.563812 
	C956.453918,379.998688 956.712219,381.478119 960.655762,380.998657 
z"/>
<path fill="#65053F" opacity="1.000000" stroke="none" 
	d="
M831.930786,416.117065 
	C820.067993,404.968903 816.438782,386.688110 822.991455,372.302521 
	C828.370544,360.493439 840.429199,353.426727 853.730164,354.288788 
	C866.782715,355.134766 875.870117,361.938995 879.445190,373.540436 
	C879.493958,373.698730 879.589722,373.842834 879.635437,374.001648 
	C883.778015,388.409302 881.968140,390.894775 867.359009,390.901764 
	C857.537964,390.906464 847.716919,390.925659 837.895935,390.955627 
	C837.582764,390.956573 837.270081,391.147949 836.958008,391.252930 
	C836.765015,406.125793 848.355042,414.170593 862.078125,408.684357 
	C863.002319,408.314850 863.900879,407.880829 864.809998,407.473907 
	C874.085999,403.322327 874.085938,403.322174 879.968872,411.760132 
	C871.110901,424.603882 846.982483,426.916565 831.930786,416.117065 
M858.817322,367.281860 
	C846.772583,363.686249 838.017029,369.086975 837.142517,380.818787 
	C846.713623,380.818787 856.271667,380.818787 866.051636,380.818787 
	C866.145508,375.130737 864.351318,370.661621 858.817322,367.281860 
z"/>
<path fill="#65053F" opacity="1.000000" stroke="none" 
	d="
M1453.723389,270.369263 
	C1450.770874,263.499603 1447.974243,256.978210 1445.109131,250.296890 
	C1460.835205,249.306488 1460.843384,249.303177 1466.514160,263.256653 
	C1473.141602,279.564514 1479.752808,295.878967 1486.859009,313.393188 
	C1487.855835,311.138397 1488.494507,309.786499 1489.058594,308.404083 
	C1496.401367,290.409485 1503.823120,272.446045 1510.986694,254.380249 
	C1512.291504,251.089569 1513.857666,249.623245 1517.483154,249.987534 
	C1520.913696,250.332230 1524.406250,250.061600 1528.546753,250.061600 
	C1527.783936,252.078842 1527.274658,253.604736 1526.640015,255.076508 
	C1516.050293,279.635315 1505.246582,304.105133 1494.998047,328.805328 
	C1492.760986,334.196808 1489.052002,332.668304 1485.367310,333.042694 
	C1481.981812,333.386719 1480.182007,332.341522 1478.755737,328.913086 
	C1470.652222,309.436035 1462.207642,290.100952 1453.723389,270.369263 
z"/>
<path fill="#63023D" opacity="1.000000" stroke="none" 
	d="
M1829.755615,312.158325 
	C1829.725586,295.765045 1829.725586,279.816132 1829.725586,263.439941 
	C1824.296265,263.439941 1819.519043,263.439941 1814.427734,263.439941 
	C1814.427734,258.933685 1814.427734,254.853592 1814.427734,250.222443 
	C1819.258423,250.222443 1824.158813,250.222443 1829.588989,250.222443 
	C1829.588989,244.593826 1829.342041,239.475159 1829.724976,234.404053 
	C1829.856079,232.668015 1831.179321,230.488083 1832.631104,229.493271 
	C1835.993164,227.189407 1839.766357,225.485199 1844.091797,223.149689 
	C1844.091797,232.474838 1844.091797,241.008957 1844.091797,249.944321 
	C1852.682495,249.944321 1860.775146,249.944321 1869.138428,249.944321 
	C1869.138428,254.456894 1869.138428,258.560333 1869.138428,263.184998 
	C1860.998047,263.184998 1852.926880,263.184998 1844.172852,263.184998 
	C1844.172852,267.770203 1844.173096,271.862518 1844.172852,275.954834 
	C1844.172485,285.946198 1844.159058,295.937592 1844.174805,305.928925 
	C1844.193848,318.147675 1850.375244,322.718842 1862.296143,319.299683 
	C1864.349365,318.710785 1866.337158,317.894592 1869.064819,316.933289 
	C1869.064819,320.907227 1869.226685,324.625519 1868.955200,328.311951 
	C1868.884277,329.274231 1867.642334,330.546356 1866.637329,330.981659 
	C1857.976440,334.733063 1849.148560,335.142883 1840.568359,330.981567 
	C1833.053711,327.337006 1830.218994,320.586792 1829.755615,312.158325 
z"/>
<path fill="#660640" opacity="1.000000" stroke="none" 
	d="
M1392.453613,422.044922 
	C1390.582886,421.192719 1388.751465,420.653168 1387.808105,419.429169 
	C1385.172974,416.010315 1382.399292,412.542450 1380.604736,408.666016 
	C1377.475464,401.906891 1372.349609,400.842316 1365.446289,402.494415 
	C1365.446289,408.578308 1365.446289,414.988678 1365.446289,421.718323 
	C1360.595581,421.718323 1356.203735,421.718323 1351.539795,421.718323 
	C1351.539795,401.061554 1351.539795,380.483185 1351.539795,358.723846 
	C1364.070923,359.267029 1376.551758,359.022217 1388.796265,360.605011 
	C1397.490112,361.728790 1402.414917,368.300659 1403.609253,377.233185 
	C1404.778687,385.980164 1401.214478,393.638672 1393.793091,398.024261 
	C1392.837280,398.589081 1391.856323,399.111053 1390.533813,399.850220 
	C1395.525513,407.198822 1400.328247,414.269409 1405.609985,422.045105 
	C1400.768188,422.045105 1396.833252,422.045105 1392.453613,422.044922 
M1365.161621,385.276337 
	C1365.261719,386.705414 1365.361816,388.134491 1365.498779,390.089630 
	C1371.514160,389.795288 1377.177490,389.910858 1382.713745,389.128082 
	C1387.496338,388.451874 1389.971069,384.758942 1389.739624,380.296539 
	C1389.509521,375.862976 1386.588379,372.460083 1381.835815,372.130890 
	C1376.434204,371.756744 1370.986694,372.044464 1365.161743,372.044464 
	C1365.161743,376.411713 1365.161743,380.368408 1365.161621,385.276337 
z"/>
<path fill="#65053F" opacity="1.000000" stroke="none" 
	d="
M1014.026733,376.201172 
	C1020.859314,358.134491 1035.622192,350.864075 1055.204956,355.567963 
	C1065.978271,358.155762 1065.978271,358.155792 1065.978271,369.004669 
	C1065.978271,372.134766 1065.978271,375.264862 1065.978271,378.314819 
	C1057.393677,379.528168 1056.926514,379.138794 1055.100098,371.366852 
	C1054.778809,369.999847 1053.707520,368.033447 1052.614136,367.746277 
	C1043.917236,365.461945 1034.896484,366.651184 1031.292725,376.870209 
	C1028.677490,384.285919 1028.593140,391.946533 1031.020996,399.448120 
	C1034.464233,410.087219 1044.504517,413.777527 1054.173584,408.151337 
	C1054.891602,407.733582 1055.596924,407.293335 1056.296631,406.845520 
	C1061.396362,403.582001 1062.290405,403.732910 1066.104126,408.589478 
	C1066.912354,409.618683 1067.654541,410.699768 1068.385620,411.700104 
	C1056.005371,429.546600 1025.461670,426.085693 1015.954651,405.860840 
	C1011.520508,396.427948 1011.362915,386.574463 1014.026733,376.201172 
z"/>
<path fill="#660740" opacity="1.000000" stroke="none" 
	d="
M270.351379,394.983276 
	C270.351440,385.694244 270.351440,376.902252 270.351440,368.336578 
	C266.807648,366.215088 260.743134,370.228333 260.426147,362.561523 
	C260.051483,353.499603 267.987915,358.651276 271.488617,354.622589 
	C272.139893,351.315308 273.047302,346.939270 273.856720,342.545227 
	C275.253998,334.959808 275.228516,334.950470 283.115997,335.060455 
	C284.235718,335.076080 285.354431,335.162994 286.904938,335.237701 
	C286.904938,338.841675 286.904938,342.135803 286.904938,345.429901 
	C286.904938,348.743896 286.904938,352.057892 286.904938,355.833954 
	C292.697174,355.833954 298.280212,355.833954 304.009064,355.833954 
	C304.009064,359.896942 304.009064,363.494873 304.009064,367.471497 
	C298.338379,367.471497 292.900391,367.471497 287.033173,367.471497 
	C287.033173,380.291077 286.836395,392.740540 287.152740,405.176941 
	C287.248016,408.922028 290.732666,411.367462 293.885712,409.625824 
	C299.757751,406.382294 301.923584,409.502350 304.090546,413.877563 
	C304.598907,414.903992 305.256531,415.856506 306.114532,417.293732 
	C298.002625,422.824249 289.482330,424.932587 280.216553,421.509796 
	C274.827484,419.519104 271.664154,415.127228 270.989960,409.428833 
	C270.444550,404.818634 270.540100,400.132660 270.351379,394.983276 
z"/>
<path fill="#64043E" opacity="1.000000" stroke="none" 
	d="
M1884.150146,421.426819 
	C1882.146606,416.796722 1880.359009,412.529816 1878.464844,408.008331 
	C1870.460571,408.008331 1862.482422,407.873932 1854.518311,408.148224 
	C1853.274658,408.191101 1851.564697,409.855835 1850.968994,411.176056 
	C1845.837280,422.549622 1845.898926,422.578003 1833.494995,421.952057 
	C1833.337158,421.944092 1833.184326,421.838196 1832.470093,421.561127 
	C1841.334839,400.704315 1850.193237,379.862854 1858.992920,359.159241 
	C1871.631348,358.298279 1871.641846,358.293823 1876.467529,369.595642 
	C1883.243652,385.465515 1890.007568,401.340637 1896.759033,417.221008 
	C1897.330078,418.564209 1897.767822,419.964081 1898.432007,421.790070 
	C1893.470825,421.790070 1888.918579,421.790070 1884.150146,421.426819 
M1863.447632,380.080811 
	C1861.390991,385.196503 1859.334473,390.312225 1857.253418,395.488892 
	C1862.917480,395.488892 1867.922607,395.488892 1873.477539,395.488892 
	C1870.739380,388.776093 1868.212402,382.580719 1865.486938,375.899017 
	C1864.764893,377.391510 1864.271851,378.410583 1863.447632,380.080811 
z"/>
<path fill="#64033D" opacity="1.000000" stroke="none" 
	d="
M1320.282104,421.187317 
	C1318.218506,416.601410 1317.411621,410.855316 1314.176270,408.612518 
	C1311.120850,406.494507 1305.511841,408.020691 1301.025879,408.012817 
	C1288.640137,407.991058 1288.643311,408.006622 1283.915527,419.232178 
	C1283.534790,420.136139 1283.069214,421.004395 1282.677368,421.817993 
	C1278.098511,421.817993 1273.676758,421.817993 1268.724487,421.817993 
	C1275.013794,406.971497 1281.140381,392.500977 1287.274292,378.033539 
	C1289.540039,372.689636 1291.931274,367.395538 1294.048218,361.993591 
	C1294.969360,359.642639 1296.223511,358.606873 1298.806152,358.870880 
	C1301.111084,359.106537 1303.491699,358.690796 1305.774170,359.016571 
	C1306.968262,359.186951 1308.618774,360.075806 1309.052734,361.077820 
	C1317.743774,381.142853 1326.287476,401.271820 1335.210083,422.207428 
	C1329.866821,421.971619 1325.172485,421.764435 1320.282104,421.187317 
M1308.752319,392.643341 
	C1306.469727,387.189056 1304.187134,381.734772 1301.613770,375.585358 
	C1298.742065,382.702026 1296.187256,389.033508 1293.432007,395.861633 
	C1298.568359,395.861633 1302.868652,395.966644 1307.152954,395.750183 
	C1307.807251,395.717102 1308.386230,394.197327 1308.752319,392.643341 
z"/>
<path fill="#64033D" opacity="1.000000" stroke="none" 
	d="
M1639.877686,384.809998 
	C1643.114258,377.113098 1646.361572,369.830994 1649.261597,362.413116 
	C1650.363159,359.595062 1651.911499,358.565216 1654.827148,358.876465 
	C1656.967285,359.104980 1659.191284,358.676086 1661.299927,359.019470 
	C1662.493164,359.213776 1664.112183,360.124115 1664.549683,361.138733 
	C1673.094116,380.952454 1681.494141,400.828430 1689.902832,420.700592 
	C1690.013306,420.961914 1689.847778,421.340057 1689.793091,421.822906 
	C1689.191772,421.892059 1688.563232,422.012817 1687.931885,422.029816 
	C1676.348145,422.341187 1676.289551,422.362488 1671.837891,411.495605 
	C1670.851074,409.086792 1669.803833,407.789307 1666.846802,407.918182 
	C1660.365967,408.200623 1653.861694,408.109009 1647.372192,407.953613 
	C1644.869995,407.893707 1643.636719,408.620453 1642.602173,411.066284 
	C1637.687134,422.686188 1637.585815,422.643311 1624.144897,421.787903 
	C1629.400024,409.457306 1634.575195,397.314026 1639.877686,384.809998 
M1658.501831,378.912598 
	C1658.168701,378.208221 1657.835693,377.503845 1657.012451,375.762878 
	C1654.107056,382.886749 1651.544556,389.169556 1648.925537,395.591187 
	C1654.610229,395.591187 1659.671997,395.591187 1665.248413,395.591187 
	C1663.005249,389.992584 1660.926270,384.803680 1658.501831,378.912598 
z"/>
<path fill="#63013C" opacity="1.000000" stroke="none" 
	d="
M919.046570,407.461243 
	C919.597656,408.446655 920.044006,409.256989 920.693665,409.483002 
	C929.335693,412.489532 929.342773,412.469086 928.501526,421.727417 
	C916.824402,421.727417 905.115784,421.727417 892.683044,421.727417 
	C893.067688,418.396759 892.447205,414.489227 894.091797,412.232300 
	C895.626221,410.126709 899.567871,409.775299 902.514771,408.626465 
	C902.514771,385.383972 902.514771,362.125153 902.514771,338.936646 
	C892.515503,335.253418 892.515503,335.253418 893.274414,325.945374 
	C901.632690,325.945374 910.028931,325.945374 919.036377,325.945374 
	C919.036377,352.883331 919.036377,379.948914 919.046570,407.461243 
z"/>
<path fill="#63023C" opacity="1.000000" stroke="none" 
	d="
M487.608704,422.025604 
	C476.192535,422.034424 465.239014,422.034424 454.343079,422.034424 
	C453.173309,412.333588 453.173309,412.333588 463.312805,408.810211 
	C463.312805,385.521118 463.312805,362.125580 463.312805,338.776245 
	C453.179565,335.492584 453.179565,335.492584 454.317535,325.879852 
	C462.682220,325.879852 471.080292,325.879852 479.855347,325.879852 
	C479.855347,353.605347 479.855347,381.206207 479.855347,407.552216 
	C483.667786,410.075714 487.377502,411.515778 489.330872,414.223053 
	C490.419830,415.732300 488.587311,419.349518 487.608704,422.025604 
z"/>
<path fill="#65053F" opacity="1.000000" stroke="none" 
	d="
M1253.226562,362.604095 
	C1262.039429,368.679016 1265.380371,377.827881 1262.596558,387.624207 
	C1260.130493,396.302155 1252.218628,402.337128 1242.010620,402.980347 
	C1237.417114,403.269775 1232.790405,403.029327 1227.761108,403.029327 
	C1227.761108,409.613953 1227.761108,415.534058 1227.761108,421.743774 
	C1223.096313,421.743774 1218.847534,421.743774 1214.234497,421.743774 
	C1214.234497,401.193207 1214.234497,380.513763 1214.234497,359.117767 
	C1227.132202,360.284210 1240.334717,356.662323 1253.226562,362.604095 
M1248.845825,384.724274 
	C1250.032593,375.740234 1246.929077,372.104156 1237.840454,371.915802 
	C1234.574341,371.848053 1231.305542,371.904907 1227.986206,371.904907 
	C1227.986206,378.496094 1227.986206,384.537231 1227.986206,390.948151 
	C1231.695435,390.948151 1235.148682,391.016449 1238.598145,390.930634 
	C1242.813965,390.825745 1246.391235,389.445923 1248.845825,384.724274 
z"/>
<path fill="#65063F" opacity="1.000000" stroke="none" 
	d="
M1600.116211,374.990570 
	C1594.716675,373.518799 1589.718872,371.733398 1584.589966,371.194031 
	C1582.870850,371.013245 1579.569580,373.805054 1579.274048,375.611664 
	C1578.987305,377.363770 1581.192017,380.629272 1583.068726,381.426208 
	C1589.148560,384.008209 1595.790039,385.284698 1601.829346,387.941193 
	C1611.975220,392.403931 1615.528809,403.611023 1609.631470,412.954529 
	C1607.556030,416.242615 1603.940918,419.173767 1600.361328,420.783752 
	C1588.997192,425.895020 1572.021484,421.999664 1562.700928,412.581635 
	C1565.192139,409.599426 1567.715576,406.578613 1569.839111,404.036499 
	C1575.485962,406.242859 1580.705688,408.584167 1586.131714,410.256592 
	C1588.356567,410.942352 1591.288574,410.802338 1593.416382,409.900055 
	C1595.343750,409.082672 1597.561401,406.876587 1597.878662,404.985413 
	C1598.136719,403.447632 1596.158569,400.760437 1594.482056,399.841919 
	C1591.481445,398.197662 1587.966187,397.486389 1584.657104,396.412537 
	C1581.817261,395.490845 1578.899658,394.772339 1576.130981,393.674805 
	C1569.157715,390.910522 1565.058472,385.995361 1564.983398,378.184540 
	C1564.905029,370.037750 1568.298218,363.837555 1575.866577,360.772766 
	C1588.240601,355.761810 1599.528076,358.776276 1610.311279,366.313416 
	C1608.218506,369.373627 1606.529175,372.254364 1604.378296,374.734894 
	C1603.748047,375.461914 1601.806885,375.052246 1600.116211,374.990570 
z"/>
<path fill="#65063F" opacity="1.000000" stroke="none" 
	d="
M1496.617676,362.242065 
	C1498.904297,363.648132 1500.858643,364.884857 1503.082397,366.292175 
	C1501.735474,368.284485 1500.565796,370.044525 1499.364502,371.782806 
	C1498.249756,373.395844 1497.101318,374.985657 1496.610840,375.678131 
	C1490.395142,373.909119 1484.987183,371.972931 1479.411987,370.933594 
	C1476.115967,370.319183 1472.504395,371.269775 1471.792236,375.554474 
	C1471.116089,379.623505 1474.076904,381.072052 1477.237305,382.093750 
	C1482.605103,383.829193 1488.122559,385.172363 1493.353516,387.244385 
	C1501.792236,390.586914 1505.327515,396.196869 1504.938965,404.505646 
	C1504.554199,412.738037 1499.985718,418.970520 1491.765503,421.385712 
	C1478.245483,425.358032 1466.352661,421.751343 1455.188110,412.948914 
	C1458.053101,409.518402 1460.579590,406.493164 1462.646484,404.018188 
	C1468.367676,406.255219 1473.651123,408.359863 1478.972290,410.364166 
	C1479.875977,410.704559 1480.958374,410.785736 1481.930054,410.692749 
	C1485.720459,410.329803 1490.082886,410.420624 1490.931885,405.464813 
	C1491.789185,400.460052 1487.454346,399.562042 1484.117310,398.371429 
	C1479.745728,396.811707 1475.161133,395.852112 1470.779907,394.315796 
	C1460.686768,390.776459 1457.100098,385.274170 1457.959351,375.129639 
	C1458.659546,366.863739 1465.194214,360.446411 1474.409668,358.920258 
	C1482.041870,357.656281 1489.302856,358.874756 1496.617676,362.242065 
z"/>
<path fill="#65043E" opacity="1.000000" stroke="none" 
	d="
M343.472839,381.500366 
	C343.427673,389.776093 343.310638,397.606781 343.522125,405.428619 
	C343.561127,406.870697 344.594818,409.102112 345.738708,409.566406 
	C353.572723,412.745850 353.621643,412.625336 352.723785,421.792053 
	C341.152100,421.792053 329.551941,421.792053 317.939575,421.792053 
	C315.796539,413.342072 316.354858,412.511078 326.838318,408.814789 
	C326.838318,395.437622 326.838318,381.994446 326.838318,368.586304 
	C316.687256,365.360077 316.687256,365.360077 317.537201,355.387787 
	C324.224274,355.387787 330.998047,355.173004 337.736053,355.568451 
	C339.088776,355.647827 340.783630,357.843750 341.460144,359.430695 
	C342.255005,361.295258 342.111145,363.560028 342.460388,366.334229 
	C344.942902,363.631653 346.854797,361.220825 349.098877,359.174225 
	C354.132477,354.583496 360.038483,352.838226 366.608154,355.133575 
	C367.750244,355.532593 368.391541,357.597107 369.062988,358.989319 
	C369.308411,359.498199 368.994232,360.292816 368.893341,360.950592 
	C367.486420,370.120911 367.484650,370.120667 358.375458,370.006134 
	C351.294159,369.917084 346.831360,373.234192 343.472839,381.500366 
z"/>
<path fill="#65053F" opacity="1.000000" stroke="none" 
	d="
M1650.863037,251.340851 
	C1650.925903,256.069550 1650.925903,260.331299 1650.925903,265.854309 
	C1659.331177,254.403244 1669.119019,247.958099 1682.958252,248.943054 
	C1682.958252,254.076706 1682.958252,258.980042 1682.958252,263.828064 
	C1679.319092,264.393341 1675.798340,264.619751 1672.457275,265.516083 
	C1659.678101,268.944397 1651.394043,280.856781 1651.041382,296.436035 
	C1650.777466,308.092010 1650.856812,319.755707 1650.774780,331.415924 
	C1650.773804,331.564026 1650.661011,331.711304 1650.503296,332.094666 
	C1645.984741,332.094666 1641.367310,332.094666 1636.424194,332.094666 
	C1636.424194,304.921021 1636.424194,277.857910 1636.424194,249.823227 
	C1641.180908,250.170868 1645.990601,250.522385 1650.863037,251.340851 
z"/>
<path fill="#660640" opacity="1.000000" stroke="none" 
	d="
M1716.623169,399.993896 
	C1724.057495,412.423248 1734.529053,413.430237 1748.652832,403.688995 
	C1751.623779,406.392395 1754.533813,409.040314 1757.438721,411.683685 
	C1747.582520,425.176575 1724.973267,427.175232 1711.378540,415.792572 
	C1697.275879,403.984650 1696.103027,381.438263 1708.892334,368.001953 
	C1721.315674,354.950073 1744.699951,354.851410 1757.275879,368.159027 
	C1754.520386,371.346375 1751.726929,374.577667 1748.863159,377.890289 
	C1746.497559,376.327271 1744.432129,374.684540 1742.132202,373.494934 
	C1735.204224,369.911438 1728.244507,369.827515 1721.947998,374.734985 
	C1714.823730,380.287415 1713.614868,387.976105 1715.251587,396.375397 
	C1715.471680,397.503662 1716.023560,398.567291 1716.623169,399.993896 
z"/>
<path fill="#B61529" opacity="1.000000" stroke="none" 
	d="
M574.743652,180.968994 
	C580.577759,170.128143 590.139282,165.529709 600.947937,168.088699 
	C610.347534,170.314102 617.535278,179.176697 617.933105,189.031616 
	C618.342529,199.171341 612.007751,208.429840 602.244446,211.386459 
	C593.595276,214.005661 585.694580,212.260773 579.351624,205.722122 
	C572.574341,198.735657 571.231079,190.423920 574.743652,180.968994 
z"/>
<path fill="#977DAC" opacity="1.000000" stroke="none" 
	d="
M471.528137,116.681549 
	C456.320312,106.142975 456.518250,86.155937 471.590424,77.612137 
	C480.656067,72.473228 492.012970,74.122238 499.105408,81.607300 
	C506.060608,88.947533 507.259491,100.217148 502.007629,108.888412 
	C496.672424,117.697327 485.944305,121.719666 475.996765,118.590378 
	C474.575531,118.143295 473.230896,117.452950 471.528137,116.681549 
z"/>
<path fill="#64033D" opacity="1.000000" stroke="none" 
	d="
M1989.277588,178.891602 
	C1984.591309,190.359009 1974.509644,196.088516 1963.755859,193.703354 
	C1953.477295,191.423553 1946.032715,181.933807 1946.398804,171.577942 
	C1946.780518,160.774109 1954.501343,152.155426 1965.410278,150.355347 
	C1980.851807,147.807312 1992.661499,161.654968 1989.277588,178.891602 
z"/>
<path fill="#660740" opacity="1.000000" stroke="none" 
	d="
M1952.807129,371.844421 
	C1948.325439,378.882751 1943.781616,385.470123 1939.863159,392.410522 
	C1938.173584,395.403381 1937.178589,399.082825 1936.925415,402.528015 
	C1936.465088,408.793640 1936.794922,415.117279 1936.794922,421.728821 
	C1932.067627,421.728821 1927.689087,421.728821 1922.869873,421.728821 
	C1922.869873,414.997955 1923.079712,408.371643 1922.767212,401.770050 
	C1922.641357,399.109314 1921.899048,396.183380 1920.532227,393.926270 
	C1914.417358,383.829285 1907.969604,373.934113 1901.660522,363.954437 
	C1900.804443,362.600555 1900.052368,361.181091 1898.915039,359.206940 
	C1903.991577,359.206940 1908.442627,358.958862 1912.836304,359.351715 
	C1914.231201,359.476471 1915.879639,361.056122 1916.717407,362.402252 
	C1921.072998,369.401306 1925.204346,376.539917 1929.835938,384.341125 
	C1934.220581,377.084198 1938.429077,370.547363 1942.168579,363.752411 
	C1944.091675,360.258270 1946.365479,358.670990 1950.399536,359.137482 
	C1953.469482,359.492554 1956.613525,359.207947 1960.726685,359.207947 
	C1957.843628,363.807312 1955.421021,367.671906 1952.807129,371.844421 
z"/>
<path fill="#65053F" opacity="1.000000" stroke="none" 
	d="
M1775.578857,376.004639 
	C1775.578979,370.218597 1775.578979,364.931274 1775.578979,359.432465 
	C1780.356689,359.432465 1784.598145,359.432465 1789.340332,359.432465 
	C1789.340332,376.028320 1789.340332,392.420105 1789.340332,409.298584 
	C1799.903687,409.298584 1809.981201,409.298584 1820.384277,409.298584 
	C1820.384277,413.672211 1820.384277,417.558014 1820.384277,421.747375 
	C1805.602173,421.747375 1790.871826,421.747375 1775.578735,421.747375 
	C1775.578735,406.684875 1775.578735,391.594116 1775.578857,376.004639 
z"/>
<path fill="#660740" opacity="1.000000" stroke="none" 
	d="
M1411.095947,315.995728 
	C1411.095947,293.869537 1411.095947,272.242249 1411.095947,250.336533 
	C1416.086060,250.336533 1420.670166,250.336533 1425.580322,250.336533 
	C1425.580322,277.450653 1425.580322,304.536865 1425.580322,331.981323 
	C1420.963013,331.981323 1416.238770,331.981323 1411.095947,331.981323 
	C1411.095947,326.751495 1411.095947,321.623077 1411.095947,315.995728 
z"/>
<path fill="#65063F" opacity="1.000000" stroke="none" 
	d="
M1782.057739,306.000000 
	C1782.057739,287.204865 1782.057739,268.909729 1782.057739,250.338470 
	C1787.022827,250.338470 1791.612061,250.338470 1796.553467,250.338470 
	C1796.553467,277.389648 1796.553467,304.454498 1796.553467,331.916321 
	C1791.943481,331.916321 1787.250000,331.916321 1782.057739,331.916321 
	C1782.057739,323.411804 1782.057739,314.955902 1782.057739,306.000000 
z"/>
<path fill="#670942" opacity="1.000000" stroke="none" 
	d="
M1423.344360,399.999786 
	C1423.344360,386.236786 1423.344360,372.973755 1423.344360,359.459137 
	C1428.157715,359.459137 1432.420654,359.459137 1436.944702,359.459137 
	C1436.944702,380.221741 1436.944702,400.962189 1436.944702,421.877594 
	C1432.567993,421.877594 1428.274414,421.877594 1423.344360,421.877594 
	C1423.344360,414.700592 1423.344360,407.600159 1423.344360,399.999786 
z"/>
<path fill="#65043E" opacity="1.000000" stroke="none" 
	d="
M1909.383423,220.406067 
	C1906.575073,214.439240 1906.883911,209.078949 1911.120483,204.335648 
	C1914.781250,200.237198 1919.552734,198.966995 1924.735107,200.405685 
	C1930.139282,201.905960 1933.437866,205.700165 1934.519165,211.269028 
	C1935.660889,217.147919 1932.260864,223.431412 1926.628418,225.942139 
	C1920.453613,228.694641 1914.551025,226.884811 1909.383423,220.406067 
z"/>
<path fill="#670741" opacity="1.000000" stroke="none" 
	d="
M1523.394775,400.903625 
	C1522.114136,400.152771 1520.645874,399.452698 1520.583862,398.644745 
	C1520.319824,395.200500 1520.471558,391.724426 1520.471558,388.057983 
	C1521.634155,387.926819 1522.430786,387.760742 1523.227783,387.758881 
	C1531.377319,387.739655 1539.526978,387.747070 1547.880249,387.747070 
	C1547.880249,392.185211 1547.880249,396.280853 1547.880249,400.904785 
	C1539.751465,400.904785 1531.802734,400.904785 1523.394775,400.903625 
z"/>
<path fill="#670942" opacity="1.000000" stroke="none" 
	d="
M849.951660,346.551270 
	C847.870911,346.551270 846.217651,346.551270 843.235840,346.551270 
	C847.205566,340.113617 850.680481,334.287292 854.409119,328.628204 
	C855.000427,327.730835 856.723267,327.198486 857.943054,327.161713 
	C863.180298,327.003937 868.424988,327.094360 875.046143,327.094360 
	C868.669128,333.716766 863.314880,339.688141 857.441101,345.095123 
	C855.925049,346.490784 852.777344,346.113953 849.951660,346.551270 
z"/>
<path fill="#FDFCFD" opacity="1.000000" stroke="none" 
	d="
M1923.655029,261.275391 
	C1936.826904,263.820251 1944.661743,272.679932 1944.853638,285.087677 
	C1929.284790,285.087677 1913.719727,285.087677 1898.150513,285.087677 
	C1898.356445,271.662598 1909.293823,261.368195 1923.655029,261.275391 
z"/>
<path fill="#FDFCFD" opacity="1.000000" stroke="none" 
	d="
M1581.084351,261.744995 
	C1592.247803,264.487488 1599.393433,273.500610 1599.739868,285.077850 
	C1598.798218,285.171570 1597.839722,285.348907 1596.881104,285.350067 
	C1582.299927,285.367737 1567.718628,285.362335 1553.156616,285.362335 
	C1552.611450,270.982117 1566.112061,259.567078 1581.084351,261.744995 
z"/>
<path fill="#FDFBFC" opacity="1.000000" stroke="none" 
	d="
M791.019531,390.797180 
	C790.428833,394.352478 790.200195,397.562225 789.206055,400.514221 
	C786.228455,409.356445 778.305603,412.975372 769.676086,409.570068 
	C765.396118,407.881165 762.514221,405.386292 762.913208,399.926666 
	C763.409607,393.133881 763.028198,386.277191 763.033325,379.448120 
	C763.037903,373.432617 767.567383,368.577759 774.414734,367.235626 
	C781.114136,365.922485 786.879517,368.224854 788.690308,374.185211 
	C790.253479,379.330322 790.309509,384.933289 791.019531,390.797180 
z"/>
<path fill="#FCFBFC" opacity="1.000000" stroke="none" 
	d="
M417.111786,397.053040 
	C416.714417,400.952545 418.369019,404.723572 414.448029,407.462799 
	C409.891907,410.645782 405.049774,412.942078 399.641876,411.469360 
	C397.265808,410.822296 394.136780,408.123016 393.821045,405.989746 
	C393.455658,403.521149 395.179901,398.998108 397.103394,398.263275 
	C402.852753,396.066742 409.131287,395.223999 415.245361,394.077484 
	C415.694855,393.993195 416.481171,395.705048 417.111786,397.053040 
z"/>
<path fill="#FCFBFC" opacity="1.000000" stroke="none" 
	d="
M536.949097,380.999023 
	C530.307007,380.999054 524.155518,380.999054 518.009399,380.999054 
	C517.911011,372.384186 523.535034,366.463562 531.981079,366.059021 
	C540.907471,365.631470 545.940674,370.534363 546.748718,380.999023 
	C543.627258,380.999023 540.533508,380.999023 536.949097,380.999023 
z"/>
<path fill="#FCFBFC" opacity="1.000000" stroke="none" 
	d="
M140.241302,367.406250 
	C145.492432,370.534943 147.396210,374.991486 147.271912,380.771851 
	C137.574081,380.771851 128.006317,380.771851 118.437668,380.764771 
	C119.201286,369.218567 127.907455,363.723419 140.241302,367.406250 
z"/>
<path fill="#FCFBFC" opacity="1.000000" stroke="none" 
	d="
M960.178101,380.998413 
	C956.712219,381.478119 956.453918,379.998688 957.036682,377.563812 
	C958.835876,370.047028 965.337341,365.451691 973.469543,366.080597 
	C980.959778,366.659912 985.111755,371.446106 985.864075,380.998657 
	C977.437256,380.998657 969.046509,380.998657 960.178101,380.998413 
z"/>
<path fill="#FCFBFC" opacity="1.000000" stroke="none" 
	d="
M859.143372,367.496826 
	C864.351318,370.661621 866.145508,375.130737 866.051636,380.818787 
	C856.271667,380.818787 846.713623,380.818787 837.142517,380.818787 
	C838.017029,369.086975 846.772583,363.686249 859.143372,367.496826 
z"/>
<path fill="#FAF7F9" opacity="1.000000" stroke="none" 
	d="
M1365.161621,384.800720 
	C1365.161743,380.368408 1365.161743,376.411713 1365.161743,372.044464 
	C1370.986694,372.044464 1376.434204,371.756744 1381.835815,372.130890 
	C1386.588379,372.460083 1389.509521,375.862976 1389.739624,380.296539 
	C1389.971069,384.758942 1387.496338,388.451874 1382.713745,389.128082 
	C1377.177490,389.910858 1371.514160,389.795288 1365.498779,390.089630 
	C1365.361816,388.134491 1365.261719,386.705414 1365.161621,384.800720 
z"/>
<path fill="#F6F1F4" opacity="1.000000" stroke="none" 
	d="
M1863.613281,379.755249 
	C1864.271851,378.410583 1864.764893,377.391510 1865.486938,375.899017 
	C1868.212402,382.580719 1870.739380,388.776093 1873.477539,395.488892 
	C1867.922607,395.488892 1862.917480,395.488892 1857.253418,395.488892 
	C1859.334473,390.312225 1861.390991,385.196503 1863.613281,379.755249 
z"/>
<path fill="#F6F1F4" opacity="1.000000" stroke="none" 
	d="
M1308.876221,393.004242 
	C1308.386230,394.197327 1307.807251,395.717102 1307.152954,395.750183 
	C1302.868652,395.966644 1298.568359,395.861633 1293.432007,395.861633 
	C1296.187256,389.033508 1298.742065,382.702026 1301.613770,375.585358 
	C1304.187134,381.734772 1306.469727,387.189056 1308.876221,393.004242 
z"/>
<path fill="#F6F1F4" opacity="1.000000" stroke="none" 
	d="
M1658.674561,379.263702 
	C1660.926270,384.803680 1663.005249,389.992584 1665.248413,395.591187 
	C1659.671997,395.591187 1654.610229,395.591187 1648.925537,395.591187 
	C1651.544556,389.169556 1654.107056,382.886749 1657.012451,375.762878 
	C1657.835693,377.503845 1658.168701,378.208221 1658.674561,379.263702 
z"/>
<path fill="#FDFCFD" opacity="1.000000" stroke="none" 
	d="
M1248.669922,385.092438 
	C1246.391235,389.445923 1242.813965,390.825745 1238.598145,390.930634 
	C1235.148682,391.016449 1231.695435,390.948151 1227.986206,390.948151 
	C1227.986206,384.537231 1227.986206,378.496094 1227.986206,371.904907 
	C1231.305542,371.904907 1234.574341,371.848053 1237.840454,371.915802 
	C1246.929077,372.104156 1250.032593,375.740234 1248.669922,385.092438 
z"/>
</svg>